<svg width="263" height="48" viewBox="0 0 263 48" fill="none" xmlns="http://www.w3.org/2000/svg">
<style>
  path { fill: #ffffff !important; }
</style>
<g clip-path="url(#clip0_14853_12488)">
<path d="M20.5623 10.686C20.3797 10.6732 20.1925 10.6924 20.0145 10.7145C17.5251 11.0228 15.5453 14.721 15.1745 16.9288C15.086 15.1302 13.9382 12.4094 11.8037 11.4523C9.00593 10.1969 7.51154 11.5376 7.51154 11.5376L2.93052 15.3395C2.93052 15.3395 0.489553 17.6309 2.26811 20.8729C3.30412 22.7606 6.68701 26.2504 5.23547 28.0518C4.98765 28.3583 4.5479 28.6474 3.88176 28.6474C2.43674 28.6474 2.21128 26.2642 2.21128 26.2642L1.02992 27.4847C1.02992 27.4847 2.84761 30.0532 4.71746 28.8465L8.0016 26.6046C10.7854 24.6748 6.50627 21.3336 5.17864 18.0924C4.26374 15.8607 4.74076 13.8648 6.619 13.2114C7.94383 12.7755 9.53698 13.3555 10.2199 14.2043C11.2447 15.4753 11.1134 17.4675 11.1134 17.4675V29.6118C11.1134 29.6118 11.1516 31.1406 10.451 31.8821C9.84909 32.519 8.79724 32.7126 7.97364 32.4492C7.97364 32.4492 9.65065 34.3001 13.4761 32.251C16.259 30.7598 15.9534 27.626 15.9534 27.626V17.7795C15.9534 17.7795 15.8751 16.47 16.9326 15.3679C17.6956 14.5741 18.6543 14.4998 19.5543 15.0559C20.512 15.6487 21.2713 17.7428 23.1552 17.6097L16.299 24.3628C16.299 24.3628 18.2854 24.1022 19.9577 24.7601C21.8015 25.4851 21.7437 28.2216 21.7437 28.2216V39.8841C21.7437 39.8841 20.6238 40.6072 18.6319 39.8556C15.9236 38.8352 13.4211 37.0852 11.5736 36.0813C9.72611 35.0783 7.45471 34.4901 5.52336 34.8048C2.02681 35.3756 -0.444911 37.3495 0.107569 41.0477C0.438311 43.2234 3.17742 44.5669 5.52336 43.7713L6.09913 40.7348C6.09913 40.7348 5.40317 41.3854 4.51436 41.8415C3.374 42.4269 1.90103 42.7389 1.1147 41.501C0.0404884 39.8098 1.18178 38.1901 2.78518 37.812C6.16528 37.0164 8.86339 40.2842 12.0618 42.2388C15.3273 44.2329 17.7944 42.7215 17.7944 42.7215L26.7831 37.4725V25.3842C26.7831 25.3842 26.8427 23.558 24.9104 22.2063C23.5111 21.2272 21.2518 21.2703 21.2518 21.2703L28.6269 13.8923L27.7055 13.0407C27.7055 13.0407 27.2284 14.0052 25.9772 14.0052C24.2825 14.0052 22.7657 11.3421 21.1083 10.7989C20.922 10.7447 20.744 10.6989 20.5605 10.6851L20.5623 10.686ZM61.9601 10.9136L55.4785 16.0213C57.1918 15.9598 57.5514 16.626 57.639 16.9573V36.5934L56.8033 37.1889L59.3095 40.7926L59.5974 41.1615L64.4663 37.8129L64.1784 37.444L63.0837 38.2387L61.9601 36.5365V10.9136ZM165.306 11.0834C164.254 11.0962 163.423 11.5853 163.059 11.8781L157.499 16.1626C154.605 18.51 158.179 22.6954 159.256 25.6686C159.607 26.6395 159.418 27.4746 158.737 27.8251C157.19 28.6217 156.451 26.1678 156.346 25.129L155.252 26.9451C155.675 28.1922 157.802 29.1622 159.227 27.9665L162.569 24.9015C164.102 23.4763 161.147 20.2829 160.092 18.2053C159.669 17.373 159.332 16.2847 160.092 15.3964C161.042 14.2851 161.97 14.6769 162.829 15.3679C165.013 17.1252 166.997 18.2402 170.089 18.688C172.162 18.9881 174.122 18.4613 174.122 18.4613L170.434 22.0934L168.706 21.0152L165.71 23.9948L172.077 27.882V39.7428L162.08 34.0111C160.08 32.8998 157.481 33.2724 155.973 34.2093C153.954 35.4656 152.807 37.5762 153.351 40.253C153.794 42.4315 156.292 43.2684 158.191 42.7499V40.5081C156.767 41.9112 154.296 42.0782 153.899 39.6005C153.587 37.6487 155.568 35.3949 157.558 36.6493C158.268 37.0962 168.447 43.0619 168.447 43.0619C171.508 41.3991 177.032 37.2449 177.032 37.2449V26.0651L171.53 22.6881L179.942 16.1048L177.781 14.2603C177.781 14.2603 176.834 15.345 175.621 15.3954C171.822 15.5524 169.817 13.327 167.381 11.7065C166.649 11.2192 165.939 11.0742 165.307 11.0824L165.306 11.0834ZM68.3271 13.8354L64.8986 16.247L67.7793 19.8222L71.2078 17.2968L68.3271 13.8354ZM196.65 13.8354L193.222 16.247L196.103 19.8222L199.531 17.2968L196.65 13.8354ZM208.376 16.9573L202.037 22.2063C203.216 21.9732 203.96 22.3513 203.997 22.8303V36.9329L206.561 40.8485L206.82 41.2174L211.285 38.1525L211.026 37.812L209.902 38.5498L208.376 36.4787L208.404 21.7805H211.544V21.3547L208.404 21.3263L208.376 16.9564V16.9573ZM253.951 20.7876L250.465 23.3699L246.547 25.8384V37.6991L248.592 40.6503L252.135 38.2103L255.304 36.1391V36.5365C255.387 38.2956 257.133 41.679 259.279 43.9989C258.874 44.176 258.296 44.4017 257.493 44.3109C253.913 43.9089 252.968 43.0858 251.357 42.6371C249.746 42.1874 247.845 42.0773 246.374 42.5517C244.41 43.1849 243.002 44.2641 242.802 45.7865C242.767 47.1327 243.553 47.6906 244.155 47.9999C244.11 47.931 244.037 47.8494 243.954 47.7732C242.846 46.7445 243.498 45.4671 244.703 44.9927C247.242 43.9943 249.86 45.9085 252.683 46.8372C255.564 47.786 257.264 46.4114 257.264 46.4114L259.194 44.6238L259.569 44.2549V25.1015L260.808 24.2499L260.52 23.881L259.281 24.7042L253.951 20.7885V20.7876ZM46.5475 21.4401L41.9954 24.6464L42.2833 25.0437L43.2336 24.3912L44.8472 26.8029V37.9543L46.7776 40.6779L47.0655 41.0752L51.7034 37.812L51.4155 37.4431L50.2919 38.2378L49.1683 36.6484V25.5255C52.295 28.2234 55.7403 26.6129 56.1977 21.9787L56.2266 21.7521L55.8232 21.809C54.5962 23.8214 53.1801 22.9257 52.5391 21.809L52.3947 21.5823L49.0239 25.129L46.7478 21.809L46.5466 21.4401H46.5475ZM109.236 21.4401L104.712 24.6464L104.971 25.0437L105.951 24.3912L107.564 26.8029V37.9543L109.466 40.6779L109.754 41.0752L114.392 37.812L114.104 37.4431L113.009 38.2378L111.885 36.6484V25.5255C115.012 28.2234 118.457 26.6129 118.915 21.9787V21.7521L118.54 21.809C117.313 23.8214 115.897 22.9257 115.256 21.809L115.112 21.5823L111.741 25.129L109.465 21.809L109.235 21.4401H109.236ZM37.9342 21.5538L30.098 25.7531V35.0884L29.1766 35.7409L29.4356 36.1098L30.2424 35.5426L33.6998 40.6788L34.0166 41.0761L40.4982 36.3942L40.2969 35.9684L37.2718 38.0965L34.2178 33.755V32.7621L41.823 27.314L41.7364 27.0873L37.9333 21.5538H37.9342ZM188.44 21.5538L180.603 25.7531V35.0884L179.682 35.7409L179.941 36.1098L180.748 35.5426L184.205 40.6788L184.522 41.0761L191.004 36.3942L190.802 35.9684L187.777 38.0965L184.723 33.755V32.7621L192.328 27.314L192.242 27.0873L188.439 21.5538H188.44ZM100.391 21.5823L92.584 25.7815V35.0884L91.6337 35.7409L91.8927 36.1098L92.6996 35.5426L96.1859 40.7072L96.4738 41.1046L102.955 36.4227L102.754 35.9684L99.729 38.1249L96.675 33.7835V32.7906L104.309 27.3424L104.194 27.1158L100.39 21.5823H100.391ZM85.3534 21.6392L82.2136 23.8241L80.2832 25.1006L78.0072 21.8374L77.8916 21.6667L76.4513 22.6312L73.3684 24.6739L73.6563 25.0428L74.6354 24.3903L76.3637 26.7735V38.0387L78.6109 41.1312L81.895 38.8609L80.5413 36.7613V25.4677L82.3851 24.2187L83.9987 26.6872V37.5551L86.1881 40.7329L86.4471 41.1018L90.9415 38.1222L90.6825 37.7533L89.5589 38.4911L88.3198 36.4768V25.5236L89.9903 24.36L89.7313 23.9912L88.0319 25.1263L85.3524 21.6364L85.3534 21.6392ZM68.7594 21.7245L64.1216 24.7895L64.3806 25.1584L65.3309 24.506L67.0014 26.9176V38.0405L69.0184 40.7641L69.2774 41.133L73.8584 38.068L73.5994 37.6991L72.447 38.4654L71.2945 36.7062V25.4979L68.9038 21.9796L68.7594 21.7245ZM197.083 21.7245L192.445 24.7895L192.704 25.1584L193.654 24.506L195.325 26.9176V38.0405L197.342 40.7641L197.601 41.133L202.182 38.068L201.923 37.6991L200.77 38.4654L199.618 36.7062V25.4979L197.227 21.9796L197.083 21.7245ZM239.546 21.753L236.407 23.9095L234.476 25.1859L232.086 21.7805L230.674 22.745L227.591 24.7592L227.85 25.1281L228.829 24.4757L230.558 26.8873V38.0956L232.834 41.1881L236.089 38.9178L234.764 36.8182V25.553L236.608 24.3325L238.193 26.801L238.221 37.6404L240.382 40.8183L240.641 41.1872L245.164 38.2075L244.905 37.8386L243.782 38.5764L242.514 36.5897V25.6081L244.184 24.4445L243.925 24.0756L242.226 25.2392L239.546 21.7493V21.753ZM222.866 21.8943L219.61 24.1077L221.483 26.9735V37.7276L219.409 38.9481L217.969 36.7347V26.1504L215.117 21.9796L213.763 22.8872L210.595 24.9584L210.854 25.3273L212.093 24.5041L213.62 26.8873V36.8751L216.645 41.1881L221.657 38.1515L223.76 41.1027L228.255 38.1231L227.967 37.7542L226.843 38.5204L225.748 36.7897V26.0357L222.868 21.8925L222.866 21.8943ZM250.609 23.5121L255.333 27.3424V35.5995L251.905 37.8414L250.609 36.1391V23.5121ZM34.2178 23.5966L38.1644 29.3852L34.2178 32.1657V23.5966ZM184.723 23.6819L188.67 29.3852L184.723 32.1657V23.681V23.6819ZM96.7039 23.7388L100.622 29.4136L96.675 32.1941L96.7039 23.7379V23.7388Z" fill="#102B4E"/>
<path d="M148.359 2.13791C148.37 2.09845 148.38 2.06083 148.387 2.01953C148.339 2.07643 148.339 2.1113 148.359 2.13791Z" fill="#102B4E"/>
<path d="M149.247 5.59576L150.581 1.84713C149.721 2.10224 149.029 1.46538 148.614 2.35643C148.582 2.21786 148.407 2.20043 148.36 2.13711C148.108 3.13369 147.092 3.13736 148.504 5.18465L148.414 5.2232C147.579 3.79624 147.502 4.43309 146.952 3.88525C146.881 4.21652 146.706 4.33766 146.881 4.61846C145.982 4.657 145.703 6.84194 146.765 7.25581C146.674 7.60635 146.842 7.69537 146.835 7.96975C147.346 7.43475 147.987 7.85504 148.491 7.23654C148.429 7.55038 148.298 7.83302 148.128 8.09088H143.183C142.795 7.54487 142.618 6.87773 142.754 6.19867C143 6.95023 143.75 6.78505 144.028 7.46045C144.125 7.20534 144.312 7.18056 144.358 6.82359C145.497 6.81074 146.033 4.67627 145.212 4.32022C145.477 4.12292 145.354 3.94398 145.405 3.6127C144.694 3.93113 144.849 3.30712 143.555 4.345L143.484 4.27525C145.632 2.80975 144.519 2.47848 144.746 1.36352C144.642 1.5287 144.526 1.43327 144.416 1.59936C144.468 0.841375 143.517 0.866152 143.18 0.427511C142.741 0.771633 141.822 0.522948 141.693 1.26809C141.622 1.07721 141.486 1.14696 141.427 0.962506C141.375 2.09673 140.211 2.15363 141.932 4.0908L141.848 4.13485C140.846 2.8226 140.846 3.46588 140.231 2.98778C140.205 3.31905 140.044 3.45946 140.25 3.72007C139.364 3.8669 139.358 6.07111 140.464 6.351C140.418 6.70797 140.593 6.77771 140.626 7.05209C141.066 6.45928 141.751 6.8034 142.171 6.12801C142.062 6.93279 141.672 7.61737 141.122 8.08996H137.558C136.908 7.54854 136.458 6.7254 136.382 5.77746C136.718 6.49782 137.443 6.24271 137.805 6.87957C137.869 6.61161 138.051 6.56756 138.051 6.20417C139.183 6.05735 139.448 3.8724 138.587 3.61729C138.827 3.38788 138.684 3.22821 138.697 2.89142C138.031 3.29244 138.108 2.65559 136.951 3.84028L136.874 3.78247C138.821 2.06828 137.676 1.87099 137.76 0.736762C137.683 0.915706 137.553 0.832199 137.463 1.01114C137.424 0.253156 136.48 0.393558 136.091 -0.00195312C135.703 0.39264 134.759 0.253156 134.72 1.01114C134.63 0.832199 134.5 0.915706 134.423 0.736762C134.507 1.87099 133.362 2.06828 135.309 3.78247L135.231 3.84028C134.073 2.65559 134.152 3.29244 133.486 2.89142C133.499 3.22912 133.356 3.38788 133.595 3.61729C132.736 3.8724 133 6.05735 134.132 6.20417C134.132 6.56756 134.313 6.61161 134.378 6.87957C134.74 6.24271 135.464 6.49782 135.801 5.77746C135.726 6.71347 135.281 7.54304 134.625 8.08996H131.05C130.509 7.62104 130.122 6.93922 130.012 6.12801C130.432 6.8034 131.118 6.45928 131.558 7.05209C131.591 6.77771 131.765 6.70797 131.72 6.351C132.826 6.07111 132.819 3.8669 131.933 3.72007C132.14 3.45854 131.979 3.31905 131.953 2.98778C131.338 3.46496 131.338 2.8226 130.336 4.13485L130.252 4.0908C131.972 2.15363 130.808 2.09673 130.757 0.962506C130.699 1.14696 130.563 1.07721 130.491 1.26809C130.362 0.522948 129.443 0.770715 129.003 0.427511C128.667 0.86707 127.716 0.841375 127.768 1.59936C127.658 1.43418 127.541 1.52962 127.438 1.36352C127.664 2.40874 126.552 2.80975 128.7 4.27525L128.629 4.345C127.335 3.30621 127.49 3.93113 126.778 3.6127C126.831 3.94398 126.708 4.122 126.972 4.32022C126.151 4.67719 126.688 6.81074 127.826 6.82359C127.871 7.18056 128.059 7.20534 128.155 7.46045C128.434 6.78505 129.184 6.95115 129.43 6.19867C129.565 6.87773 129.388 7.54487 129 8.09088H124.056C123.887 7.83393 123.755 7.55038 123.693 7.23654C124.198 7.85412 124.838 7.43383 125.348 7.96975C125.342 7.69537 125.51 7.60635 125.419 7.25581C126.48 6.84194 126.202 4.65608 125.303 4.61846C125.477 4.33766 125.303 4.21744 125.232 3.88525C124.682 4.43309 124.605 3.79624 123.77 5.2232L123.68 5.18465C125.148 3.0566 123.99 3.13919 123.796 2.01873C123.764 2.2096 123.615 2.15913 123.57 2.35643C123.156 1.46447 122.464 2.10132 121.603 1.84713L122.936 5.59576C122.685 5.69487 122.535 5.95549 122.602 6.22161C122.674 6.50425 122.958 6.67493 123.245 6.61712L124.15 10.7365C123.893 10.8026 124.023 11.4559 124.281 11.3917C124.285 11.3917 124.289 11.3899 124.294 11.3889L124.605 12.8049C124.605 12.8049 124.6 12.8049 124.597 12.8058H124.605L124.916 14.2199C124.916 14.2199 124.915 14.2199 124.914 14.2199C124.655 14.2832 124.804 14.9715 125.063 14.9082H125.068L125.096 15.0357H147.088L147.116 14.9082H147.12C147.38 14.9715 147.528 14.2842 147.27 14.2199C147.27 14.2199 147.269 14.2199 147.268 14.2199L147.579 12.8058H147.586C147.586 12.8058 147.582 12.8049 147.579 12.8049L147.89 11.3889C147.89 11.3889 147.898 11.3908 147.903 11.3917C148.161 11.455 148.291 10.8016 148.034 10.7365L148.939 6.61712C149.226 6.67493 149.51 6.50425 149.582 6.22161C149.649 5.95549 149.499 5.69487 149.247 5.59576Z" fill="#102B4E"/>
<path d="M136.066 46.918L127.563 42.215C123.906 40.119 123.906 37.59 123.906 34.9132V14.9724H148.227V35.049C148.227 37.6753 148.228 40.1567 144.572 42.215L136.066 46.9189V46.918ZM124.294 15.3532V34.9122C124.294 37.4762 124.294 39.8988 127.755 41.8828L136.066 46.4794L144.38 41.8819C147.84 39.9337 147.839 37.5606 147.838 35.0481V15.3542H124.294V15.3532Z" fill="#102B4E"/>
<path d="M127.45 19.1633C127.591 19.29 127.655 19.5873 127.684 19.8351C127.681 19.8681 127.684 19.9002 127.703 19.9277C129.107 22.0815 127.23 22.5972 133.64 26.2027C133.614 24.2086 133.996 23.7948 134.675 22.9725C132.787 22.4247 131.448 22.176 130.697 21.6153C129.941 21.0482 130.277 19.7993 129.365 19.1367C129.342 19.1202 129.315 19.1083 129.287 19.0973C129.241 18.7219 128.976 18.4788 128.73 18.4558C128.871 18.6164 128.913 18.8403 128.938 19.0679C128.932 19.0679 128.926 19.0688 128.919 19.0697C128.835 18.7605 128.596 18.5568 128.381 18.5448C128.499 18.6669 128.566 18.9064 128.587 19.1514C128.582 19.1532 128.577 19.1551 128.572 19.1569C128.51 18.9587 128.331 18.7082 128.038 18.6797C128.171 18.8165 128.221 19.0605 128.252 19.2982C128.247 19.301 128.241 19.3046 128.236 19.3074C128.161 19.1055 127.958 18.9009 127.728 18.8834C127.831 18.9669 127.914 19.256 127.941 19.4964C127.936 19.5001 127.932 19.5029 127.927 19.5065C127.872 19.3918 127.706 19.1918 127.449 19.1633H127.45Z" fill="#102B4E"/>
<path d="M142.611 38.926C142.359 37.9065 142.242 34.9755 142.229 34.568L142.592 34.5744L142.644 33.8357C141.564 32.5171 141.738 30.4532 141.292 29.1217C141.118 28.5803 140.923 28.0196 140.923 27.4461C140.923 26.6688 141.816 25.2097 141.796 23.9103C141.789 23.3625 141.479 22.6495 141.486 22.3246C141.492 21.3822 142.042 21.5859 142.029 19.623C142.022 19.0816 141.958 18.6797 141.816 18.1254C142.779 17.1251 141.453 16.1249 140.69 16.7498C140.075 16.5902 139.998 16.4314 138.795 16.4314C137.766 16.4314 137.178 16.7058 136.538 17.1261V17.1325L134.959 17.1903C134.882 17.1967 134.823 17.2343 134.823 17.3243C134.83 17.885 134.94 18.2484 135.347 18.5411C135.295 18.8531 135.327 19.0128 135.657 19.2743C135.69 19.0192 135.793 18.9045 135.954 18.7962C135.967 18.8026 135.98 18.8026 135.987 18.8091C135.967 18.9238 135.967 19.0449 135.994 19.1146C136.058 19.2927 136.376 19.2991 136.459 19.1724C136.537 19.3569 136.699 19.3633 136.828 19.3633C136.964 19.3633 137.029 19.2679 137.074 19.1789C137.152 19.2422 137.23 19.3128 137.301 19.4019C137.383 19.5129 137.435 19.6386 137.474 19.768C137.103 19.6267 136.49 19.7093 135.916 19.6184C134.707 19.4276 134.558 19.0899 134.558 18.8412C134.551 18.5796 134.312 18.5677 134.312 18.8476C134.318 20.4865 136.791 19.6762 137.539 20.0727C137.556 20.2076 137.565 20.3434 137.565 20.4792C137.494 20.4856 137.423 20.492 137.352 20.4985V20.3461C137.345 20.1296 136.835 20.091 136.718 20.2764C136.589 20.136 136.188 20.1617 136.188 20.3847V20.4544C136.098 20.3397 136.026 20.2186 135.968 20.0974C135.806 20.1993 135.709 20.2764 135.735 20.6389C135.665 20.6453 135.593 20.6517 135.529 20.6581C135.535 21.0784 135.722 21.1931 137.249 21.1619C137.289 21.5822 136.861 21.8181 136.544 22.0154C135.716 22.4806 134.843 22.9899 134.371 23.8433C133.976 24.5187 133.879 25.3217 133.924 26.0989L134.377 25.9016L134.429 26.1439C133.614 26.5266 132.126 27.3038 131.15 27.7489C130.91 27.8572 130.29 28.0104 130.16 27.7939C129.714 27.0359 129.358 26.4623 128.841 25.8824C128.828 25.8677 128.809 25.8613 128.79 25.8539C128.68 25.5392 128.399 25.2428 128.084 25.2831C128.226 25.3786 128.334 25.7007 128.39 25.9558C128.385 25.9595 128.378 25.9631 128.372 25.9659C128.244 25.7043 127.997 25.4593 127.708 25.4933C127.861 25.6273 127.958 25.9301 128.023 26.1925C128.014 26.199 128.004 26.2063 127.995 26.2127C127.83 25.9365 127.631 25.7392 127.346 25.7732C127.531 25.9503 127.612 26.2403 127.664 26.4935C127.655 26.5027 127.646 26.511 127.636 26.5192C127.517 26.3128 127.305 26.1017 127.022 26.1301C127.191 26.2806 127.276 26.5798 127.342 26.8422C127.329 26.8597 127.318 26.8762 127.305 26.8936C127.178 26.7386 127.004 26.5734 126.75 26.5954C126.933 26.7698 127.023 27.0964 127.102 27.3708C127.104 27.4176 127.112 27.4626 127.137 27.5002C127.874 28.6023 129.078 30.1825 131.083 30.1954C133.159 30.2082 134.964 29.4567 135.358 29.342L135.442 29.6035C135.176 29.7182 134.944 29.8008 134.666 29.8898C135.028 31.292 135.448 31.8389 136.425 32.6932L136.225 32.8401C136.05 32.7382 135.752 32.4134 135.591 32.2601C133.514 33.2282 132.738 34.1973 132.241 35.1975C131.691 36.4015 131.794 37.7716 132.027 39.0389C132.073 39.249 131.84 39.3509 131.665 39.2876C131.186 39.1793 130.922 38.7076 130.462 38.536C130.255 38.447 129.983 38.3451 129.757 38.3827C129.753 38.3827 129.75 38.3864 129.747 38.3873C129.418 38.2506 129.017 38.3203 128.819 38.5736C129.027 38.536 129.311 38.6259 129.481 38.7241C129.478 38.7314 129.475 38.7397 129.472 38.747C129.221 38.6635 128.83 38.7489 128.663 38.9746C128.855 38.9251 129.146 39.0297 129.342 39.1297C129.34 39.138 129.338 39.1462 129.336 39.1545C129.094 39.1022 128.773 39.1398 128.56 39.3949C128.746 39.3536 129.04 39.4445 129.252 39.5546C129.251 39.561 129.25 39.5684 129.249 39.5748C128.965 39.5298 128.691 39.6363 128.527 39.8281C128.769 39.7757 129.035 39.8978 129.218 39.9822C129.218 39.9914 129.218 40.0015 129.218 40.0107C128.909 40.0189 128.714 40.1419 128.599 40.274C128.808 40.2318 129.122 40.3346 129.363 40.4539C129.365 40.4548 129.367 40.4576 129.368 40.4585C130.067 40.7962 130.83 40.8659 131.606 41.2614C132.117 41.4652 132.609 41.7964 133.191 41.7074C133.521 41.6753 133.851 41.4523 133.883 41.1091C134.174 39.873 134.582 38.5608 135.539 37.6688C135.998 37.2228 136.594 36.8658 137.181 36.5924C136.948 35.7133 136.774 34.8341 136.793 33.9165L137.077 33.9036C137.284 37.3944 138.229 38.1276 139.891 39.7519C140.059 39.9171 140.046 40.23 139.8 40.3254C139.477 40.4851 139.095 40.4906 138.727 40.5099C138.709 40.5099 138.694 40.5209 138.68 40.5301C138.314 40.5521 138.021 40.7751 137.926 41.0449C138.028 40.965 138.312 40.9173 138.552 40.9458C138.552 40.9604 138.55 40.9733 138.55 40.988C138.253 41.0366 137.981 41.2633 137.919 41.4844C138.039 41.389 138.366 41.355 138.571 41.3862C138.573 41.4009 138.575 41.4156 138.577 41.4303C138.3 41.4844 138.051 41.6863 137.971 41.9185C138.098 41.8368 138.417 41.801 138.653 41.8276C138.656 41.8423 138.661 41.857 138.665 41.8717C138.378 41.9515 138.169 42.158 138.099 42.3571C138.281 42.2397 138.515 42.236 138.795 42.2498C138.803 42.2663 138.81 42.2837 138.817 42.2993C138.549 42.4168 138.435 42.5544 138.332 42.7591C138.519 42.6425 138.846 42.6333 139.171 42.6554C139.185 42.6572 139.198 42.6636 139.212 42.6627C140.234 42.6306 141.295 41.8469 141.909 41.077C142.168 40.7586 142.478 40.4401 142.724 40.1272C143.028 39.739 142.698 39.2866 142.607 38.9297L142.611 38.926ZM135.607 19.1247C135.433 19.0036 135.361 18.7806 135.42 18.5833C135.517 18.6402 135.653 18.7109 135.853 18.7678C135.743 18.8568 135.639 18.9843 135.607 19.1247ZM136.409 19.1247C136.345 19.2266 136.105 19.2202 136.053 19.0807C136.034 19.0229 136.034 18.921 136.06 18.8256C136.189 18.8577 136.325 18.8834 136.455 18.921C136.455 19.0036 136.435 19.0862 136.409 19.1247ZM136.816 19.2972C136.713 19.2972 136.596 19.2908 136.532 19.1697C136.499 19.1064 136.512 19.0164 136.532 18.9403C136.706 18.9907 136.875 19.0486 137.024 19.144C136.991 19.2202 136.934 19.2963 136.817 19.2963L136.816 19.2972ZM136.183 20.5967L135.801 20.6288C135.781 20.4507 135.801 20.2975 135.943 20.1956C136.014 20.3232 136.092 20.4443 136.183 20.5526V20.5967ZM136.706 20.5526L136.247 20.5939V20.3929C136.247 20.1828 136.7 20.1956 136.706 20.3929V20.5526ZM137.289 20.5012L136.765 20.5453V20.3672C136.765 20.1571 137.289 20.1699 137.289 20.3608V20.5012ZM138.588 18.342C138.491 18.342 138.316 18.2915 138.265 18.2208C137.702 17.3738 137.56 17.6794 137.476 17.9721C137.405 18.2337 137.094 18.2401 137.185 17.8896C137.412 17.0297 138.026 17.1508 138.789 18.342H138.589H138.588ZM140.439 17.4876C140.594 17.2839 140.834 17.0866 141.092 17.0031C141.474 16.8755 141.628 17.182 141.325 17.2839C141.072 17.3922 140.859 17.5454 140.678 17.7235L140.439 17.4876Z" fill="#102B4E"/>
</g>
<defs>
<clipPath id="clip0_14853_12488">
<rect width="260.776" height="48" fill="white" transform="translate(0.03125)"/>
</clipPath>
</defs>
</svg>
