<?xml version="1.0" encoding="utf-8"?>
<!-- Generator: Adobe Illustrator 24.0.1, SVG Export Plug-In . SVG Version: 6.00 Build 0)  -->
<svg version="1.1" id="Ebene_1" xmlns="http://www.w3.org/2000/svg" xmlns:xlink="http://www.w3.org/1999/xlink" x="0px" y="0px"
	 viewBox="0 0 600 600" style="enable-background:new 0 0 600 600;" xml:space="preserve">
<g>
	<path d="M400,300c-55.23,0-100,44.77-100,100c0,55.23,44.77,100,100,100s100-44.77,100-100C500,344.77,455.23,300,400,300 M200,300
		l-50,50l50,50H100c0,55.23,44.77,100,100,100s100-44.77,100-100C300,344.77,255.23,300,200,300"/>
</g>
<g>
	<path d="M122.67,119.74c0-2.27,1.32-3.4,3.02-3.4c2.27,0,4.44,1.23,4.63,5.29h22.58c-0.57-13.89-10.96-21.63-27.11-21.63
		c-14.26,0-25.6,6.99-25.6,20.4c-0.38,22.86,31.17,19.55,31.27,28.62c0,2.36-1.98,3.31-4.06,3.31c-2.08,0-4.73-0.85-5.1-5.76H100
		c0.95,15.02,12.94,22.1,28.24,22.1c16.15,0,25.51-9.07,25.51-21.35C153.75,126.73,122.67,128.15,122.67,119.74 M203.42,117.76
		h17.76v-16.63h-56.3v16.63h17.57v50.26h20.97V117.76z M295.14,138.82v-37.69h-20.88v37.69c0,5.76-2.55,10.01-8.88,10.01
		c-6.33,0-8.6-4.25-8.6-10.01v-37.69h-20.87v37.69c0,19.74,12.28,29.85,29,29.85C281.63,168.67,295.14,158.57,295.14,138.82
		 M355.02,134.38c0,9.73-6.14,14.93-15.4,14.93h-5.01v-29.85h5.01C348.88,119.46,355.02,124.66,355.02,134.38 M376.28,134.38
		c0-19.27-13.41-33.25-34.76-33.25h-27.87v66.88h27.87C362.86,168.01,376.28,153.46,376.28,134.38 M393.26,168.01h20.97v-66.88
		h-20.97V168.01z M478.75,134.29c0,8.88-4.63,14.83-13.04,14.83c-8.6,0-13.13-5.95-13.13-14.83c0-9.07,4.53-14.93,13.13-14.93
		C474.12,119.36,478.75,125.22,478.75,134.29 M500,134.29c0-20.12-15.21-34.29-34.29-34.29c-18.99,0-34.48,14.17-34.48,34.29
		s15.49,34.38,34.48,34.38C484.6,168.67,500,154.41,500,134.29"/>
</g>
<polygon points="100,200 100,300 200,300 300,200 "/>
<polygon points="400,200 300,300 400,300 500,200 "/>
</svg>
