<svg width="277" height="65" viewBox="0 0 277 65" fill="none" xmlns="http://www.w3.org/2000/svg">
<g filter="url(#filter0_d_482_2830)">
<path d="M4 0H318V57H4L44 29L4 0Z" fill="white"/>
</g>
<path d="M247.618 20C244.399 20 242.999 23.0635 242.999 23.0635C242.714 22.4956 242.343 21.9788 241.902 21.5322C241.441 21.0467 240.893 20.6614 240.288 20.3986C239.684 20.1357 239.036 20.0006 238.381 20.001C235.161 20.001 232.496 22.7416 233.081 26.8427C233.666 30.9439 237.597 34.3244 242.999 38C245.699 36.1646 248.032 34.3989 249.766 32.5823C251.496 30.7595 252.624 28.8935 252.919 26.8403C253.503 22.7405 250.838 20 247.618 20Z" fill="#EF807C"/>
<path d="M68.5 35.32C64.3 35.32 61 32.12 61 28.02C61 23.92 64.3 20.72 68.5 20.72C72.7 20.72 76 23.92 76 28.02C76 32.12 72.7 35.32 68.5 35.32ZM68.5 24.94C66.78 24.94 65.5 26.26 65.5 28.02C65.5 29.76 66.78 31.08 68.5 31.08C70.22 31.08 71.52 29.76 71.52 28.02C71.52 26.26 70.22 24.94 68.5 24.94ZM83.3591 25.1C83.4591 25.1 83.5391 25.18 83.5391 25.28V28.66C83.5391 28.76 83.4591 28.84 83.3591 28.84C82.3791 28.84 80.7391 29.12 80.7391 30.96V34.64C80.7391 34.74 80.6591 34.82 80.5591 34.82H76.5991C76.5191 34.82 76.4391 34.74 76.4391 34.64V25.34C76.4391 25.24 76.5191 25.16 76.5991 25.16H80.3191C80.4191 25.16 80.4991 25.24 80.4991 25.34V26.18C81.0991 25.5 82.1191 25.1 83.3591 25.1ZM90.3186 20.9H94.2786C94.3786 20.9 94.4586 20.98 94.4586 21.08V30.44C94.4586 33.42 92.1786 35.58 89.0386 35.58C85.8986 35.58 83.6186 33.44 83.6186 30.48C83.6186 27.7 85.6786 25.52 88.2786 25.52C88.9786 25.52 89.5986 25.66 90.1386 25.98V21.08C90.1386 20.98 90.2186 20.9 90.3186 20.9ZM89.0186 31.94C89.8186 31.94 90.4186 31.32 90.4186 30.52C90.4186 29.72 89.8186 29.1 89.0186 29.1C88.2186 29.1 87.6186 29.72 87.6186 30.52C87.6186 31.32 88.2186 31.94 89.0186 31.94ZM99.6505 34.96C96.5905 34.64 94.5105 32.22 94.8305 29.36C95.1505 26.48 97.6105 24.56 100.55 24.88C103.33 25.18 105.11 27.32 105.01 30.22C104.99 30.3 104.93 30.36 104.85 30.38L99.1305 31.56C99.3905 31.72 99.6905 31.82 100.03 31.84C100.95 31.96 102.03 31.66 103.27 30.98C103.31 30.96 103.37 30.96 103.41 30.98C103.47 31 103.51 31.04 103.53 31.1L104.21 33.88C104.23 33.96 104.19 34.04 104.13 34.08C102.81 34.8 101.15 35.14 99.6505 34.96ZM98.5705 29.06L101.21 28.5C100.97 28.22 100.63 28.04 100.25 28C99.4905 27.92 98.8705 28.32 98.5705 29.06ZM112.383 25.1C112.483 25.1 112.563 25.18 112.563 25.28V28.66C112.563 28.76 112.483 28.84 112.383 28.84C111.403 28.84 109.763 29.12 109.763 30.96V34.64C109.763 34.74 109.683 34.82 109.583 34.82H105.623C105.543 34.82 105.463 34.74 105.463 34.64V25.34C105.463 25.24 105.543 25.16 105.623 25.16H109.343C109.443 25.16 109.523 25.24 109.523 25.34V26.18C110.123 25.5 111.143 25.1 112.383 25.1ZM117.729 21.2C117.729 21.1 117.809 21.02 117.909 21.02H121.709C121.769 21.02 121.829 21.06 121.849 21.1L126.409 27.3V21.2C126.409 21.1 126.489 21.02 126.589 21.02H130.589C130.689 21.02 130.769 21.1 130.769 21.2V34.82C130.769 34.92 130.689 35 130.589 35H126.829C126.769 35 126.709 34.98 126.689 34.94L122.089 28.66V34.82C122.089 34.92 122.009 35 121.909 35H117.909C117.809 35 117.729 34.92 117.729 34.82V21.2ZM135.754 34.82H131.794C131.714 34.82 131.614 34.74 131.614 34.64V25.3C131.614 25.2 131.714 25.12 131.794 25.12H135.754C135.854 25.12 135.934 25.2 135.934 25.3V34.64C135.934 34.74 135.854 34.82 135.754 34.82ZM133.734 24.84C132.714 24.84 131.794 24.2 131.534 23.22C131.214 22.02 131.954 20.78 133.214 20.46C134.454 20.12 135.734 20.82 136.054 22C136.214 22.58 136.114 23.18 135.794 23.7C135.474 24.22 134.974 24.6 134.374 24.76C134.154 24.82 133.934 24.84 133.734 24.84ZM147.412 34.54C147.452 34.6 147.452 34.68 147.412 34.72C147.372 34.78 147.312 34.82 147.252 34.82H142.812C142.752 34.82 142.692 34.78 142.652 34.7L141.052 31.1V34.64C141.052 34.74 140.972 34.82 140.872 34.82H136.932C136.832 34.82 136.752 34.74 136.752 34.64V20.62C136.752 20.52 136.832 20.44 136.932 20.44H140.872C140.972 20.44 141.052 20.52 141.052 20.62V27.62L142.652 25.38C142.692 25.34 142.732 25.3 142.792 25.3H147.092C147.172 25.3 147.232 25.34 147.252 25.4C147.292 25.46 147.292 25.54 147.252 25.6L144.512 29.18L147.412 34.54ZM151.506 34.96C148.446 34.64 146.366 32.22 146.686 29.36C147.006 26.48 149.466 24.56 152.406 24.88C155.186 25.18 156.966 27.32 156.866 30.22C156.846 30.3 156.786 30.36 156.706 30.38L150.986 31.56C151.246 31.72 151.546 31.82 151.886 31.84C152.806 31.96 153.886 31.66 155.126 30.98C155.166 30.96 155.226 30.96 155.266 30.98C155.326 31 155.366 31.04 155.386 31.1L156.066 33.88C156.086 33.96 156.046 34.04 155.986 34.08C154.666 34.8 153.006 35.14 151.506 34.96ZM150.426 29.06L153.066 28.5C152.826 28.22 152.486 28.04 152.106 28C151.346 27.92 150.726 28.32 150.426 29.06ZM161.538 17.8C161.638 17.8 161.718 17.88 161.718 17.98L160.658 23.32C160.658 23.42 160.558 23.5 160.478 23.5H157.358C157.258 23.5 157.178 23.42 157.178 23.32L158.258 17.98C158.258 17.88 158.338 17.8 158.438 17.8H161.538ZM166.211 28.52C168.011 29.18 168.831 30.22 168.831 31.76C168.831 33.8 167.271 35.12 164.851 35.12C163.791 35.12 162.671 34.88 161.631 34.42C161.571 34.4 161.531 34.32 161.531 34.24L161.911 31.62C161.911 31.56 161.951 31.5 161.991 31.48C162.051 31.46 162.111 31.44 162.151 31.48C163.011 31.88 163.791 32.1 164.351 32.1C164.531 32.1 164.731 32.06 164.731 31.88C164.731 31.8 164.731 31.68 164.371 31.56L164.011 31.42C162.491 30.86 161.671 29.74 161.671 28.28C161.671 26.32 163.211 25 165.531 25C166.431 25 167.491 25.2 168.511 25.56C168.591 25.58 168.631 25.66 168.631 25.74L168.251 28.38C168.251 28.42 168.211 28.48 168.171 28.5C168.111 28.54 168.051 28.54 168.011 28.52C167.211 28.16 166.391 27.92 165.891 27.92C165.691 27.92 165.571 28 165.571 28.14C165.571 28.24 165.651 28.32 165.831 28.4L166.211 28.52ZM174.335 35C174.235 35 174.155 34.92 174.155 34.82V21.2C174.155 21.1 174.235 21.02 174.335 21.02H179.895C182.595 21.02 184.435 22.54 184.435 24.78C184.435 26 183.815 27.02 182.715 27.72C184.095 28.4 184.895 29.6 184.895 31.02C184.895 33.4 182.895 35 179.915 35H174.335ZM179.075 26.32C179.735 26.32 180.175 25.94 180.175 25.36C180.175 24.78 179.735 24.38 179.075 24.38H178.535V26.32H179.075ZM178.535 29.64V31.66H179.255C179.935 31.66 180.395 31.24 180.395 30.64C180.395 30.04 179.935 29.64 179.255 29.64H178.535ZM190.424 25C193.484 25 195.804 27.18 195.804 30.08C195.804 32.96 193.484 35.12 190.424 35.12C187.364 35.12 185.044 32.96 185.044 30.08C185.044 27.18 187.364 25 190.424 25ZM190.424 31.48C191.224 31.48 191.824 30.86 191.824 30.06C191.824 29.26 191.224 28.64 190.424 28.64C189.624 28.64 189.024 29.26 189.024 30.06C189.024 30.86 189.624 31.48 190.424 31.48ZM201.323 25C204.383 25 206.703 27.18 206.703 30.08C206.703 32.96 204.383 35.12 201.323 35.12C198.263 35.12 195.943 32.96 195.943 30.08C195.943 27.18 198.263 25 201.323 25ZM201.323 31.48C202.123 31.48 202.723 30.86 202.723 30.06C202.723 29.26 202.123 28.64 201.323 28.64C200.523 28.64 199.923 29.26 199.923 30.06C199.923 30.86 200.523 31.48 201.323 31.48ZM217.841 34.54C217.881 34.6 217.881 34.68 217.841 34.72C217.801 34.78 217.741 34.82 217.681 34.82H213.241C213.181 34.82 213.121 34.78 213.081 34.7L211.481 31.1V34.64C211.481 34.74 211.401 34.82 211.301 34.82H207.361C207.261 34.82 207.181 34.74 207.181 34.64V20.62C207.181 20.52 207.261 20.44 207.361 20.44H211.301C211.401 20.44 211.481 20.52 211.481 20.62V27.62L213.081 25.38C213.121 25.34 213.161 25.3 213.221 25.3H217.521C217.601 25.3 217.661 25.34 217.681 25.4C217.721 25.46 217.721 25.54 217.681 25.6L214.941 29.18L217.841 34.54Z" fill="black"/>
<defs>
<filter id="filter0_d_482_2830" x="0" y="0" width="322" height="65" filterUnits="userSpaceOnUse" color-interpolation-filters="sRGB">
<feFlood flood-opacity="0" result="BackgroundImageFix"/>
<feColorMatrix in="SourceAlpha" type="matrix" values="0 0 0 0 0 0 0 0 0 0 0 0 0 0 0 0 0 0 127 0" result="hardAlpha"/>
<feOffset dy="4"/>
<feGaussianBlur stdDeviation="2"/>
<feComposite in2="hardAlpha" operator="out"/>
<feColorMatrix type="matrix" values="0 0 0 0 0 0 0 0 0 0 0 0 0 0 0 0 0 0 0.25 0"/>
<feBlend mode="normal" in2="BackgroundImageFix" result="effect1_dropShadow_482_2830"/>
<feBlend mode="normal" in="SourceGraphic" in2="effect1_dropShadow_482_2830" result="shape"/>
</filter>
</defs>
</svg>
