<svg width="260" height="65" viewBox="0 0 260 65" fill="none" xmlns="http://www.w3.org/2000/svg">


<g filter="url(#dropShadow)">
<path d="M4 0H318V57H4L44 29L4 0Z" fill="white"/>
</g>

<path d="M71.6178 20C68.3993 20 66.9994 23.0635 66.9994 23.0635C66.7136 22.4956 66.3432 21.9788 65.9021 21.5322C65.4412 21.0467 64.8927 20.6614 64.2883 20.3986C63.6839 20.1357 63.0356 20.0006 62.3809 20.001C59.161 20.001 56.4958 22.7416 57.0811 26.8427C57.6664 30.9439 61.5969 34.3244 66.9994 38C69.6993 36.1646 72.0325 34.3989 73.7658 32.5823C75.4964 30.7595 76.624 28.8935 76.9193 26.8403C77.5029 22.7405 74.8377 20 71.6178 20Z" fill="#EF807C"/>
<path d="M99.84 38.56L97.58 34.9C97.4333 34.66 97.24 34.4867 97 34.38C96.76 34.2733 96.4467 34.22 96.06 34.22L98.8 33.2C99.2 33.2 99.5533 33.2467 99.86 33.34C100.18 33.4333 100.46 33.5867 100.7 33.8C100.953 34 101.18 34.2667 101.38 34.6L102.98 37.14L99.84 38.56ZM96.08 34.22C95.0133 34.22 94.04 34.0467 93.16 33.7C92.28 33.3533 91.52 32.86 90.88 32.22C90.2533 31.5667 89.7667 30.7933 89.42 29.9C89.0867 29.0067 88.92 28.02 88.92 26.94C88.92 25.8467 89.0867 24.8533 89.42 23.96C89.7667 23.0667 90.2533 22.3 90.88 21.66C91.52 21.02 92.28 20.5333 93.16 20.2C94.04 19.8533 95.0133 19.68 96.08 19.68C97.1467 19.68 98.12 19.8533 99 20.2C99.88 20.5333 100.633 21.02 101.26 21.66C101.9 22.3 102.387 23.0667 102.72 23.96C103.067 24.84 103.24 25.8333 103.24 26.94C103.24 28.0333 103.067 29.0267 102.72 29.92C102.387 30.8133 101.9 31.5867 101.26 32.24C100.633 32.88 99.88 33.3733 99 33.72C98.12 34.0533 97.1467 34.22 96.08 34.22ZM96.08 31.14C96.7867 31.14 97.3867 30.9733 97.88 30.64C98.3733 30.3067 98.7533 29.8267 99.02 29.2C99.2867 28.5733 99.42 27.82 99.42 26.94C99.42 26.06 99.2867 25.3067 99.02 24.68C98.7533 24.0533 98.3733 23.58 97.88 23.26C97.3867 22.9267 96.7867 22.76 96.08 22.76C95.3867 22.76 94.7867 22.9267 94.28 23.26C93.7867 23.58 93.4067 24.0533 93.14 24.68C92.8733 25.2933 92.74 26.0467 92.74 26.94C92.74 27.82 92.8733 28.5733 93.14 29.2C93.4067 29.8267 93.7867 30.3067 94.28 30.64C94.7867 30.9733 95.3867 31.14 96.08 31.14ZM108.853 34.22C107.999 34.22 107.299 34.0667 106.753 33.76C106.206 33.44 105.793 32.9667 105.513 32.34C105.246 31.7133 105.113 30.92 105.113 29.96V24.16H108.673V30.06C108.673 30.38 108.713 30.6467 108.793 30.86C108.886 31.0733 109.026 31.2333 109.213 31.34C109.399 31.4467 109.633 31.5 109.913 31.5C110.233 31.5 110.513 31.4267 110.753 31.28C111.006 31.12 111.199 30.9 111.333 30.62C111.479 30.3267 111.553 29.9867 111.553 29.6V24.16H115.113V34H111.633V32.2H111.953C111.659 32.8533 111.246 33.3533 110.713 33.7C110.193 34.0467 109.573 34.22 108.853 34.22ZM120.605 34.22C119.845 34.22 119.171 34.08 118.585 33.8C118.011 33.52 117.558 33.14 117.225 32.66C116.905 32.1667 116.745 31.6067 116.745 30.98C116.745 30.26 116.931 29.6933 117.305 29.28C117.678 28.8667 118.278 28.5733 119.105 28.4C119.931 28.2133 121.031 28.12 122.405 28.12H123.505V29.8H122.405C122.018 29.8 121.678 29.82 121.385 29.86C121.105 29.9 120.871 29.9667 120.685 30.06C120.498 30.14 120.358 30.2467 120.265 30.38C120.171 30.5133 120.125 30.6667 120.125 30.84C120.125 31.1467 120.231 31.4 120.445 31.6C120.671 31.8 120.991 31.9 121.405 31.9C121.738 31.9 122.031 31.8267 122.285 31.68C122.551 31.5333 122.765 31.3333 122.925 31.08C123.085 30.8133 123.165 30.5067 123.165 30.16V27.84C123.165 27.36 123.038 27.02 122.785 26.82C122.545 26.62 122.125 26.52 121.525 26.52C121.018 26.52 120.458 26.6 119.845 26.76C119.231 26.92 118.631 27.1667 118.045 27.5L117.145 25.16C117.491 24.92 117.918 24.7067 118.425 24.52C118.945 24.3333 119.491 24.1933 120.065 24.1C120.651 23.9933 121.191 23.94 121.685 23.94C122.778 23.94 123.678 24.1 124.385 24.42C125.105 24.7267 125.638 25.2067 125.985 25.86C126.345 26.5 126.525 27.3267 126.525 28.34V34H123.205V32.14H123.325C123.258 32.5667 123.105 32.9333 122.865 33.24C122.625 33.5467 122.311 33.7867 121.925 33.96C121.538 34.1333 121.098 34.22 120.605 34.22ZM128.552 34V24.16H132.012V26.58H131.812C131.945 25.78 132.278 25.16 132.812 24.72C133.358 24.2667 134.072 24.0133 134.952 23.96L135.932 23.88L136.132 26.88L134.192 27.06C133.485 27.1267 132.972 27.3267 132.652 27.66C132.332 27.98 132.172 28.46 132.172 29.1V34H128.552ZM142.97 34.22C141.476 34.22 140.37 33.8733 139.65 33.18C138.93 32.4867 138.57 31.44 138.57 30.04V26.78H136.73V24.16H138.57V21.3H142.13V24.16H144.93V26.78H142.13V29.92C142.13 30.4133 142.243 30.78 142.47 31.02C142.71 31.2467 143.083 31.36 143.59 31.36C143.75 31.36 143.923 31.34 144.11 31.3C144.31 31.26 144.53 31.2133 144.77 31.16L145.25 33.72C144.943 33.88 144.583 34 144.17 34.08C143.77 34.1733 143.37 34.22 142.97 34.22ZM151.588 34.22C150.388 34.22 149.348 34.0133 148.468 33.6C147.601 33.1733 146.934 32.5733 146.468 31.8C146.001 31.0267 145.768 30.1133 145.768 29.06C145.768 28.0467 145.988 27.16 146.428 26.4C146.881 25.6267 147.494 25.0267 148.268 24.6C149.054 24.16 149.948 23.94 150.948 23.94C151.948 23.94 152.808 24.1467 153.528 24.56C154.248 24.9733 154.801 25.5667 155.188 26.34C155.588 27.1 155.788 27.9933 155.788 29.02V29.8H148.748V28.12H153.188L152.868 28.38C152.868 27.66 152.714 27.1267 152.408 26.78C152.101 26.42 151.668 26.24 151.108 26.24C150.694 26.24 150.334 26.34 150.028 26.54C149.734 26.7267 149.508 27.0067 149.348 27.38C149.188 27.7533 149.108 28.22 149.108 28.78V28.96C149.108 29.5867 149.194 30.0933 149.368 30.48C149.554 30.8667 149.841 31.1533 150.228 31.34C150.614 31.5133 151.101 31.6 151.688 31.6C152.194 31.6 152.721 31.5267 153.268 31.38C153.828 31.22 154.321 30.9933 154.748 30.7L155.628 33.04C155.121 33.4 154.501 33.6867 153.768 33.9C153.034 34.1133 152.308 34.22 151.588 34.22ZM162.403 34.22C160.91 34.22 159.803 33.8733 159.083 33.18C158.363 32.4867 158.003 31.44 158.003 30.04V26.78H156.163V24.16H158.003V21.3H161.563V24.16H164.363V26.78H161.563V29.92C161.563 30.4133 161.676 30.78 161.903 31.02C162.143 31.2467 162.516 31.36 163.023 31.36C163.183 31.36 163.356 31.34 163.543 31.3C163.743 31.26 163.963 31.2133 164.203 31.16L164.683 33.72C164.376 33.88 164.016 34 163.603 34.08C163.203 34.1733 162.803 34.22 162.403 34.22ZM170.02 34.22C168.527 34.22 167.42 33.8733 166.7 33.18C165.98 32.4867 165.62 31.44 165.62 30.04V26.78H163.78V24.16H165.62V21.3H169.18V24.16H171.98V26.78H169.18V29.92C169.18 30.4133 169.294 30.78 169.52 31.02C169.76 31.2467 170.134 31.36 170.64 31.36C170.8 31.36 170.974 31.34 171.16 31.3C171.36 31.26 171.58 31.2133 171.82 31.16L172.3 33.72C171.994 33.88 171.634 34 171.22 34.08C170.82 34.1733 170.42 34.22 170.02 34.22ZM179.099 34V19.9H182.659V28.12H182.699L185.939 24.16H190.119L185.719 29.44V28.2L190.259 34H185.999L182.699 29.9H182.659V34H179.099ZM194.023 34.22C193.263 34.22 192.589 34.08 192.003 33.8C191.429 33.52 190.976 33.14 190.643 32.66C190.323 32.1667 190.163 31.6067 190.163 30.98C190.163 30.26 190.349 29.6933 190.723 29.28C191.096 28.8667 191.696 28.5733 192.523 28.4C193.349 28.2133 194.449 28.12 195.823 28.12H196.923V29.8H195.823C195.436 29.8 195.096 29.82 194.803 29.86C194.523 29.9 194.289 29.9667 194.103 30.06C193.916 30.14 193.776 30.2467 193.683 30.38C193.589 30.5133 193.543 30.6667 193.543 30.84C193.543 31.1467 193.649 31.4 193.863 31.6C194.089 31.8 194.409 31.9 194.823 31.9C195.156 31.9 195.449 31.8267 195.703 31.68C195.969 31.5333 196.183 31.3333 196.343 31.08C196.503 30.8133 196.583 30.5067 196.583 30.16V27.84C196.583 27.36 196.456 27.02 196.203 26.82C195.963 26.62 195.543 26.52 194.943 26.52C194.436 26.52 193.876 26.6 193.263 26.76C192.649 26.92 192.049 27.1667 191.463 27.5L190.563 25.16C190.909 24.92 191.336 24.7067 191.843 24.52C192.363 24.3333 192.909 24.1933 193.483 24.1C194.069 23.9933 194.609 23.94 195.103 23.94C196.196 23.94 197.096 24.1 197.803 24.42C198.523 24.7267 199.056 25.2067 199.403 25.86C199.763 26.5 199.943 27.3267 199.943 28.34V34H196.623V32.14H196.743C196.676 32.5667 196.523 32.9333 196.283 33.24C196.043 33.5467 195.729 33.7867 195.343 33.96C194.956 34.1333 194.516 34.22 194.023 34.22ZM205.65 34.22C204.796 34.22 204.096 34.0667 203.55 33.76C203.003 33.44 202.59 32.9667 202.31 32.34C202.043 31.7133 201.91 30.92 201.91 29.96V24.16H205.47V30.06C205.47 30.38 205.51 30.6467 205.59 30.86C205.683 31.0733 205.823 31.2333 206.01 31.34C206.196 31.4467 206.43 31.5 206.71 31.5C207.03 31.5 207.31 31.4267 207.55 31.28C207.803 31.12 207.996 30.9 208.13 30.62C208.276 30.3267 208.35 29.9867 208.35 29.6V24.16H211.91V34H208.43V32.2H208.75C208.456 32.8533 208.043 33.3533 207.51 33.7C206.99 34.0467 206.37 34.22 205.65 34.22ZM214.821 34V26.78H212.961V24.16H215.841L214.821 25.1V24.54C214.821 23.02 215.228 21.88 216.041 21.12C216.868 20.36 218.161 19.9333 219.921 19.84L221.121 19.78L221.321 22.32L220.401 22.38C219.895 22.4067 219.488 22.48 219.181 22.6C218.888 22.7067 218.681 22.8667 218.561 23.08C218.441 23.28 218.381 23.54 218.381 23.86V24.52L217.941 24.16H220.861V26.78H218.381V34H214.821ZM227.173 34.22C225.973 34.22 224.933 34.0133 224.053 33.6C223.187 33.1733 222.52 32.5733 222.053 31.8C221.587 31.0267 221.353 30.1133 221.353 29.06C221.353 28.0467 221.573 27.16 222.013 26.4C222.467 25.6267 223.08 25.0267 223.853 24.6C224.64 24.16 225.533 23.94 226.533 23.94C227.533 23.94 228.393 24.1467 229.113 24.56C229.833 24.9733 230.387 25.5667 230.773 26.34C231.173 27.1 231.373 27.9933 231.373 29.02V29.8H224.333V28.12H228.773L228.453 28.38C228.453 27.66 228.3 27.1267 227.993 26.78C227.687 26.42 227.253 26.24 226.693 26.24C226.28 26.24 225.92 26.34 225.613 26.54C225.32 26.7267 225.093 27.0067 224.933 27.38C224.773 27.7533 224.693 28.22 224.693 28.78V28.96C224.693 29.5867 224.78 30.0933 224.953 30.48C225.14 30.8667 225.427 31.1533 225.813 31.34C226.2 31.5133 226.687 31.6 227.273 31.6C227.78 31.6 228.307 31.5267 228.853 31.38C229.413 31.22 229.907 30.9933 230.333 30.7L231.213 33.04C230.707 33.4 230.087 33.6867 229.353 33.9C228.62 34.1133 227.893 34.22 227.173 34.22ZM232.907 34V24.16H236.367V25.88H236.147C236.467 25.2533 236.921 24.7733 237.507 24.44C238.107 24.1067 238.787 23.94 239.547 23.94C240.334 23.94 240.981 24.0933 241.487 24.4C241.994 24.6933 242.374 25.16 242.627 25.8C242.881 26.4267 243.007 27.22 243.007 28.18V34H239.447V28.32C239.447 27.92 239.401 27.6 239.307 27.36C239.214 27.1067 239.074 26.9267 238.887 26.82C238.714 26.7133 238.494 26.66 238.227 26.66C237.867 26.66 237.554 26.74 237.287 26.9C237.021 27.0467 236.814 27.26 236.667 27.54C236.534 27.82 236.467 28.1533 236.467 28.54V34H232.907Z" fill="black"/>

<defs>
<filter id="dropShadow" x="0" y="0" width="322" height="65" filterUnits="userSpaceOnUse" color-interpolation-filters="sRGB">
<feFlood flood-opacity="0" result="BackgroundImageFix"/>
<feColorMatrix in="SourceAlpha" type="matrix" values="0 0 0 0 0 0 0 0 0 0 0 0 0 0 0 0 0 0 127 0" result="hardAlpha"/>
<feOffset dy="4"/>
<feGaussianBlur stdDeviation="2"/>
<feComposite in2="hardAlpha" operator="out"/>
<feColorMatrix type="matrix" values="0 0 0 0 0 0 0 0 0 0 0 0 0 0 0 0 0 0 0.25 0"/>
<feBlend mode="normal" in2="BackgroundImageFix" result="effect1_dropShadow_482_2830"/>
<feBlend mode="normal" in="SourceGraphic" in2="effect1_dropShadow_482_2830" result="shape"/>
</filter>
</defs>
</svg>
