<svg width="608" height="128" viewBox="0 0 608 128" fill="none" xmlns="http://www.w3.org/2000/svg">
<g clip-path="url(#clip0_2820_1092)">
<mask id="mask0_2820_1092" style="mask-type:luminance" maskUnits="userSpaceOnUse" x="0" y="-1" width="608" height="129">
<path d="M608 -0.199463H0V127.689H608V-0.199463Z" fill="white"/>
</mask>
<g mask="url(#mask0_2820_1092)">
<path d="M95.8977 60.0821H120.41V20.5786C120.451 12.8713 116.621 7.40765 111.226 4.21852C105.845 0.99926 99.0456 -0.199341 92.5894 -0.199341C91.4816 -0.199341 90.4322 -0.164545 89.4114 -0.102099C89.4024 -0.102099 89.3922 -0.102099 89.3838 -0.102099C79.7866 0.443144 73.6619 3.4381 67.8044 7.79848L67.9154 8.00944C66.5813 6.5132 65.0103 5.24252 63.273 4.21852C57.8905 0.99926 51.0894 -0.199341 44.6305 -0.199341C35.7654 -0.199341 29.5511 2.37091 24.7744 5.95398L24.6672 6.04656V1.2012H0V60.0806H24.514L24.4962 30.5955H24.4913C24.4913 21.8912 31.4519 17.8154 37.8408 17.8154C37.848 17.8154 37.8635 17.8154 37.875 17.8154C37.875 17.8154 37.8788 17.8154 37.8825 17.8154C44.117 17.9344 47.8906 20.7364 47.9375 25.5675V60.0806H72.4515V30.5955C72.4515 22.4936 78.4824 18.4132 84.4728 17.8872C84.8943 17.8511 85.323 17.8297 85.7581 17.8207C85.7718 17.8207 85.7911 17.817 85.8048 17.817C85.8138 17.817 85.8228 17.817 85.8262 17.817C85.8287 17.817 85.834 17.817 85.834 17.817C92.0707 17.9353 95.8508 20.7377 95.8977 25.5687V60.0821ZM182.187 30.3613C182.178 34.8652 180.844 38.1478 178.584 40.3527C176.317 42.5436 172.972 43.8134 168.444 43.8224C163.608 43.8053 160.367 42.3731 158.202 40.0846C156.048 37.7884 154.883 34.4268 154.878 30.2808C154.887 25.9245 156.137 22.5903 158.347 20.3381C160.555 18.0922 163.824 16.7498 168.444 16.7346C173.162 16.7485 176.463 18.1805 178.705 20.5003C180.941 22.8285 182.183 26.2013 182.187 30.3613ZM207.377 30.6462C207.377 12.7703 193.45 -0.0116908 168.529 -0.0116908C143.61 -0.0116908 129.688 12.7703 129.688 30.6462C129.688 48.5171 143.61 61.3019 168.529 61.3019C193.45 61.3016 207.377 48.5171 207.377 30.6462ZM270.005 60.0821H294.504V23.3822C294.556 14.6313 290.314 8.42668 284.354 4.81285C278.398 1.15336 270.867 -0.202759 263.732 -0.202759C253.926 -0.202759 247.052 1.88221 241.77 5.95398C241.765 4.92283 241.762 3.10815 241.762 3.10815L241.754 1.2012H217.256V60.0806H241.776V31.8762H241.766C241.845 22.3495 249.059 17.959 257.843 17.808C257.857 17.808 257.871 17.8042 257.885 17.8042C257.885 17.8042 257.889 17.8042 257.892 17.8042C265.402 17.9453 269.951 21.3214 270.006 27.1339V60.0821H270.005ZM356.132 30.5228C356.132 35.0258 354.791 38.311 352.528 40.5065C350.265 42.703 346.92 43.9715 342.395 43.9799C337.558 43.9635 334.319 42.5309 332.158 40.2437C329.994 37.9518 328.826 34.5909 328.826 30.4402C328.835 26.0838 330.091 22.7506 332.297 20.4975C334.504 18.2522 337.774 16.9089 342.396 16.8915C347.107 16.9079 350.415 18.3398 352.652 20.6631C354.893 22.9864 356.132 26.3594 356.132 30.5228ZM381.319 30.6117C381.419 19.0995 375.323 6.2134 358.609 2.01798H358.6C356.385 1.46932 351.161 0.314833 347.728 0.111649C345.856 0.00694994 344.011 -0.0461763 342.213 -0.0461763C340.451 -0.0461763 338.73 0.0044645 337.032 0.111649C335.002 0.251765 331.671 0.79794 329.149 1.30248C310.754 4.97316 303.514 17.8114 303.644 30.5216C303.484 43.8246 310.79 55.7882 329.443 59.8774C332.111 60.4621 336.346 61.0288 337.568 61.0946V61.0965C339.264 61.2127 340.919 61.2699 342.543 61.2699C344.12 61.2699 345.662 61.2127 347.156 61.1018C349.941 61.062 354.442 60.0216 356.885 59.5416C374.805 55.6021 381.441 42.5533 381.319 30.6117ZM434.179 23.398C434.171 25.8583 433.35 27.3418 432.099 28.4018C430.831 29.446 428.934 30.0522 426.657 30.0522H416.21V17.7054H426.657V17.7107C428.731 17.702 430.728 18.2373 432.049 19.1787C433.369 20.1399 434.155 21.3304 434.179 23.398ZM458.628 23.3151C458.655 15.7121 454.864 9.98971 449.735 6.42932C444.605 2.84035 438.202 1.21052 432.442 1.2012H432.405H391.738V60.093H416.253V46.4818H431.537H431.555H431.649C437.716 46.4604 444.316 45.017 449.581 41.3656C454.884 37.7303 458.666 31.6863 458.628 23.3151ZM519.751 30.5539C519.748 35.0603 518.411 38.3408 516.148 40.5429C513.884 42.7338 510.539 44.0023 506.008 44.0157C501.176 43.9979 497.943 42.566 495.771 40.2772C493.611 37.981 492.451 34.6244 492.44 30.4697C492.451 26.1171 493.705 22.7804 495.912 20.5273C498.128 18.2824 501.392 16.9396 506.01 16.9297C510.731 16.9381 514.033 18.3709 516.275 20.6926C518.506 23.0174 519.748 26.3889 519.751 30.5539ZM544.944 30.6424C545.039 19.1305 538.941 6.25285 522.223 2.05588L522.216 2.05029C520.003 1.50567 514.779 0.345591 511.348 0.147688C509.471 0.0426781 507.635 -0.0141763 505.832 -0.0141763C504.077 -0.0141763 502.343 0.0339791 500.651 0.147688C498.626 0.283765 495.287 0.82994 492.769 1.33448C474.375 5.00641 467.127 17.8474 467.256 30.5548C467.103 43.8597 474.41 55.8271 493.063 59.9156C495.731 60.4947 499.972 61.0623 501.187 61.1369H501.182C502.885 61.2459 504.54 61.3043 506.158 61.3043C507.759 61.3043 509.32 61.2459 510.833 61.1397C513.63 61.0838 518.076 60.0551 520.501 59.5813C538.429 55.6369 545.056 42.5927 544.944 30.6424ZM608 60.0545V42.0295H579.17V1.17542H577.273H554.647V60.0554H608V60.0545Z" fill="white"/>
</g>
<mask id="mask1_2820_1092" style="mask-type:luminance" maskUnits="userSpaceOnUse" x="0" y="-1" width="608" height="129">
<path d="M608 -0.199463H0V127.689H608V-0.199463Z" fill="white"/>
</mask>
<g mask="url(#mask1_2820_1092)">
<path d="M599.578 93.0284C596.695 93.0284 594.226 94.3171 592.811 96.4981V93.7473H587.23C587.37 96.1883 587.37 99.6518 587.37 101.699V107.917C587.37 109.919 587.37 113.117 587.23 115.876H592.811C592.719 113.115 592.719 109.474 592.719 107.435V104.008C592.901 98.9835 595.599 97.5162 597.976 97.5162C600.584 97.5162 602.505 99.2112 602.505 102.627V107.434C602.505 109.471 602.505 113.115 602.367 115.874H607.95C607.859 113.114 607.859 109.917 607.859 107.916V101.521C607.858 96.673 604.43 93.0284 599.578 93.0284ZM571.541 97.5587C575.56 97.5587 577.713 100.493 577.802 102.672H564.954C565.092 100.538 567.519 97.5587 571.541 97.5587ZM571.724 93.0284C564.724 93.0284 559.602 98.0527 559.602 104.633C559.602 110.762 564.039 116.586 572.362 116.586C577.897 116.586 580.912 113.918 581.691 113.072V107.871C581.054 108.944 577.579 111.998 572.823 111.998C567.739 111.998 565.048 108.539 565.002 106.227H582.787V103.823C582.787 98.2708 578.536 93.0284 571.724 93.0284ZM544.475 97.6466C548.503 97.6466 551.067 100.722 551.067 104.807C551.067 108.848 548.505 111.922 544.475 111.922C540.41 111.922 537.893 108.848 537.893 104.807C537.893 100.722 540.411 97.6466 544.475 97.6466ZM532.681 82.5495C532.813 85.2974 532.813 88.5043 532.813 90.4988V107.917C532.813 109.918 532.813 113.432 532.681 115.875H538.262V113.072C539.95 115.251 542.562 116.586 545.802 116.586C552.253 116.586 556.601 111.385 556.601 104.764C556.601 98.1419 552.165 93.0284 545.667 93.0284C542.191 93.0284 539.543 94.5398 538.262 96.279V90.4991C538.262 88.5046 538.216 85.2977 538.349 82.5498H532.681V82.5495ZM516.989 97.5587C521.01 97.5587 523.163 100.493 523.253 102.672H510.403C510.543 100.538 512.959 97.5587 516.989 97.5587ZM517.173 93.0284C510.176 93.0284 505.05 98.0527 505.05 104.633C505.05 110.762 509.489 116.586 517.812 116.586C523.349 116.586 526.364 113.918 527.141 113.072V107.871C526.503 108.944 523.024 111.998 518.267 111.998C513.187 111.998 510.5 108.539 510.449 106.227H528.236V103.823C528.237 98.2708 523.989 93.0284 517.173 93.0284ZM485.232 111.028V108.411V90.0157C485.232 87.9696 485.232 85.2971 485.323 82.5467H479.563C479.651 85.2946 479.651 87.968 479.651 90.0157V108.41C479.651 110.456 479.651 113.115 479.515 115.875H502.933V110.938C500.093 111.071 497.486 111.028 495.432 111.028H485.232V111.028ZM451.257 97.6466C455.322 97.6466 457.839 100.722 457.839 104.807C457.839 108.848 455.322 111.922 451.257 111.922C447.23 111.922 444.664 108.848 444.664 104.807C444.664 100.722 447.23 97.6466 451.257 97.6466ZM457.381 82.5495C457.517 85.2974 457.469 88.5043 457.469 90.4988V96.2787C456.195 94.5395 453.54 93.0281 450.067 93.0281C443.565 93.0281 439.136 98.1416 439.136 104.763C439.136 111.385 443.479 116.586 449.929 116.586C453.171 116.586 455.783 115.251 457.469 113.072V115.875H463.051C462.918 113.43 462.918 109.917 462.918 107.916V90.497C462.918 88.5024 462.918 85.2943 463.051 82.5464H457.381V82.5495H457.381ZM426.622 93.0284C423.739 93.0284 421.268 94.3171 419.855 96.4981V93.7473H414.272C414.408 96.1883 414.408 99.6518 414.408 101.699V107.917C414.408 109.919 414.408 113.117 414.272 115.876H419.855C419.757 113.115 419.757 109.474 419.757 107.435V104.008C419.943 98.9835 422.644 97.5162 425.02 97.5162C427.624 97.5162 429.546 99.2112 429.546 102.627V107.434C429.546 109.471 429.546 113.115 429.412 115.874H434.987C434.898 113.114 434.898 109.917 434.898 107.916V101.521C434.898 96.673 431.469 93.0284 426.622 93.0284ZM396.152 116.586C399.035 116.586 401.505 115.294 402.921 113.115V115.876H408.501C408.368 113.431 408.368 109.963 408.368 107.917V101.699C408.368 99.6965 408.368 96.4981 408.501 93.747H402.921C403.011 96.4977 403.011 100.141 403.011 102.19V105.605C402.83 110.63 400.133 112.097 397.754 112.097C395.146 112.097 393.224 110.41 393.224 106.985V102.192C393.224 100.141 393.224 96.499 393.366 93.7482H387.784C387.872 96.499 387.872 99.6962 387.872 101.699V108.093C387.875 112.941 391.31 116.586 396.152 116.586ZM367.475 97.8762H373.47V93.747H367.475V84.2334L362.08 88.8988V93.7467H357.646V97.8744H362.08V108.043C362.08 113.378 365.29 116.584 370.042 116.584C371.413 116.584 372.284 116.313 373.012 115.917V111.47C372.285 111.823 371.278 111.964 370.773 111.964C368.716 111.964 367.475 110.574 367.475 108.002L367.475 97.8762ZM346.421 93.0284C340.838 93.0284 337.27 95.6095 337.27 99.7381C337.27 103.209 339.882 104.94 344.048 106.23C347.744 107.435 350.946 107.698 350.946 109.822C350.946 111.342 349.395 112.141 346.74 112.141C343.176 112.141 339.607 110.764 337.411 108.451V113.918C339.65 115.557 343.176 116.586 346.832 116.586C352.825 116.586 356.48 113.918 356.48 109.701C356.48 105.871 353.37 104.095 348.251 102.716C345.318 101.917 342.763 101.52 342.763 99.7381C342.763 98.36 344.223 97.559 346.605 97.559C349.258 97.559 352.185 98.5426 354.654 100.228V95.2025C352.414 93.8725 349.485 93.0284 346.421 93.0284ZM324.543 93.0284C321.661 93.0284 319.191 94.3171 317.776 96.4981V93.7473H312.196C312.327 96.1883 312.327 99.6518 312.327 101.699V107.917C312.327 109.919 312.327 113.117 312.196 115.876H317.776C317.679 113.115 317.679 109.474 317.679 107.435V104.008C317.866 98.9835 320.563 97.5162 322.939 97.5162C325.55 97.5162 327.467 99.2112 327.467 102.627V107.434C327.467 109.471 327.467 113.115 327.329 115.874H332.911C332.823 113.114 332.823 109.917 332.823 107.916V101.521C332.823 96.673 329.386 93.0284 324.543 93.0284ZM294.075 116.586C296.955 116.586 299.425 115.294 300.842 113.115V115.876H306.424C306.288 113.431 306.288 109.963 306.288 107.917V101.699C306.288 99.6965 306.288 96.4981 306.424 93.747H300.842C300.937 96.4977 300.937 100.141 300.937 102.19V105.605C300.752 110.63 298.053 112.097 295.676 112.097C293.066 112.097 291.151 110.41 291.151 106.985V102.192C291.151 100.141 291.151 96.499 291.285 93.7482H285.707C285.797 96.499 285.797 99.6962 285.797 101.699V108.093C285.796 112.941 289.228 116.586 294.075 116.586ZM262.2 104.578L266.867 99.4756L277.335 115.875H283.926C282.916 114.671 281.819 112.941 280.86 111.517L270.524 95.479L278.16 87.1146C279.532 85.6059 281.089 83.9621 282.781 82.5495H275.738L262.2 97.4276V90.016C262.2 87.9699 262.2 85.2974 262.29 82.547H256.531C256.62 85.2949 256.62 87.9684 256.62 90.016V108.41C256.62 110.457 256.62 113.115 256.484 115.876H262.337C262.199 113.115 262.2 110.457 262.2 108.41V104.578H262.2ZM234.35 93.747H228.859C229.001 96.188 229.001 99.6514 229.001 101.699V107.917C229.001 109.919 229.001 113.116 228.859 115.876H234.441C234.35 113.115 234.35 109.918 234.35 107.917V104.184C234.35 98.94 237.914 98.3165 239.287 98.3165C240.752 98.3165 241.62 98.6296 242.26 98.94V93.0284C238.238 92.9942 235.996 93.8243 234.35 96.5431V93.747ZM210.739 116.586C213.625 116.586 216.089 115.294 217.511 113.115V115.876H223.087C222.952 113.431 222.952 109.963 222.952 107.917V101.699C222.952 99.6965 222.952 96.4981 223.087 93.747H217.511C217.603 96.4977 217.603 100.141 217.603 102.19V105.605C217.416 110.63 214.723 112.097 212.341 112.097C209.736 112.097 207.814 110.41 207.814 106.985V102.192C207.814 100.141 207.814 96.499 207.949 93.7482H202.37C202.464 96.499 202.464 99.6962 202.464 101.699V108.093C202.466 112.941 205.894 116.586 210.739 116.586ZM220.847 83.347H214.718V89.3018H220.847V83.347ZM210.739 83.347H204.612V89.3018H210.739V83.347ZM198.204 82.8126C197.381 82.2755 195.914 81.9241 194.408 81.9241C189.967 81.9241 187.594 85.2949 187.594 89.7849V93.7473H182.927V97.8327H187.594V107.916C187.594 109.918 187.594 113.115 187.456 115.874H193.035C192.946 113.114 192.946 109.917 192.946 107.916V97.8327H197.977V93.7473H192.946V89.9629C192.946 86.3264 195.78 85.9651 198.206 87.073V82.8126H198.204ZM161.434 93.0284C158.551 93.0284 156.082 94.3171 154.665 96.4981V93.7473H149.084C149.22 96.1883 149.22 99.6518 149.22 101.699V107.917C149.22 109.919 149.22 113.117 149.084 115.876H154.665C154.574 113.115 154.574 109.474 154.574 107.435V104.008C154.755 98.9835 157.455 97.5162 159.831 97.5162C162.441 97.5162 164.361 99.2112 164.361 102.627V107.434C164.361 109.471 164.361 113.115 164.222 115.874H169.802C169.712 113.114 169.712 109.917 169.712 107.916V101.521C169.711 96.673 166.278 93.0284 161.434 93.0284ZM137.679 93.747C137.818 96.188 137.818 99.6514 137.818 101.699V107.917C137.818 109.919 137.818 113.116 137.679 115.876H143.258C143.168 113.115 143.168 109.918 143.168 107.917V101.699C143.168 99.6514 143.168 96.1883 143.258 93.747H137.679ZM143.352 83.3836H137.589V89.249H143.352V83.3836ZM133.648 111.781H121.939L134.33 93.747H115.17V97.8324H125.551L113.115 115.874H133.69L133.648 111.781ZM104.808 106.186V106.72C104.808 109.701 102.294 112.186 98.9565 112.186C96.4844 112.186 94.9324 110.895 94.9324 109.022C94.9324 107.292 96.2578 106.186 99.318 106.186H104.808ZM100.512 93.0284C97.263 93.0284 94.3847 94.0999 92.6408 95.433V99.9214C94.2886 98.5436 96.987 97.6035 99.686 97.6035C103.026 97.6035 104.808 99.0254 104.808 102.19V102.495H99.0451C93.33 102.495 89.8501 105.165 89.8501 109.293C89.8501 113.695 93.7387 116.586 98.1309 116.586C101.241 116.586 103.575 115.116 104.807 113.378V115.874H110.156C110.024 112.624 110.068 107.381 110.068 105.026V101.784C110.069 96.3194 106.271 93.0284 100.512 93.0284ZM73.8242 97.6466C77.8499 97.6466 80.4115 100.722 80.4115 104.807C80.4115 108.891 77.8496 111.967 73.8242 111.967C69.756 111.967 67.2391 108.891 67.2391 104.807C67.2391 100.722 69.756 97.6466 73.8242 97.6466ZM72.8202 93.0709C66.0489 93.0709 61.7053 98.8089 61.7053 104.806C61.7053 110.894 66.1873 116.533 73.0011 116.533C75.9299 116.533 78.7641 115.514 80.2698 113.512V115.777C80.2698 119.694 77.527 122.673 72.9551 122.673C69.1579 122.673 65.7281 120.625 63.5336 117.781V124.36C65.9125 126.266 69.2064 127.689 73.1855 127.689C81.1426 127.689 85.5304 122.051 85.5304 115.603V98.1416C85.5304 96.585 85.5304 95.3815 85.6206 93.7467H80.0901V96.2775C78.4881 94.2755 75.9286 93.0709 72.8202 93.0709ZM52.3888 106.186V106.72C52.3888 109.701 49.872 112.186 46.5336 112.186C44.0636 112.186 42.5054 110.895 42.5054 109.022C42.5054 107.292 43.8358 106.186 46.8976 106.186H52.3888ZM48.0846 93.0284C44.841 93.0284 41.9568 94.0999 40.2186 95.433V99.9214C41.8679 98.5436 44.5656 97.6035 47.2615 97.6035C50.6015 97.6035 52.387 99.0254 52.387 102.19V102.495H46.6215C40.9055 102.495 37.4279 105.165 37.4279 109.293C37.4279 113.695 41.3164 116.586 45.7098 116.586C48.8198 116.586 51.1504 115.116 52.387 113.378V115.874H57.7362C57.5947 112.624 57.6414 107.381 57.6414 105.026V101.784C57.642 96.3194 53.8495 93.0284 48.0846 93.0284ZM32.6058 115.876C32.4703 113.115 32.4703 110.457 32.4703 108.41V90.016C32.4703 87.9699 32.4703 85.2974 32.5604 82.547H26.8923V83.5657L26.8416 82.547L16.3717 104.94L5.89672 82.547H0.226091C0.320896 85.2949 0.320896 87.9684 0.320896 90.016V108.41C0.320896 110.457 0.320896 113.115 0.181641 115.875H6.03566C5.89641 113.115 5.89641 110.457 5.89641 108.41V93.8243L16.3714 115.876L26.8932 93.7473V108.41C26.8932 110.457 26.8932 113.115 26.754 115.876H32.6058Z" fill="white"/>
</g>
</g>
<defs>
<clipPath id="clip0_2820_1092">
<rect width="608" height="128" fill="white"/>
</clipPath>
</defs>
</svg>
