<svg xmlns="http://www.w3.org/2000/svg" viewBox="0 0 167 88" style="enable-background:new 0 0 167 88" xml:space="preserve"><path d="M139.5 42.6c0-.5-.3-.9-.7-.1-.4.6-.7.8-1.1 1-.8.7.2 1.8 1 1.2.5-.6.8-1.1.8-2.1m-1.1-9.6c.4-1.1.2-1.1-.5-.6-.2.2-1 .8-1.2 1-.2.8.7 1.6 1.3.8.3-.2.4-1 .4-1.2m-.9 2.8c-.6 0-1.3-.2-2.4-.6-.7 0-1.7.4-3 2-.8.9-1.1 2.3-1.4 3.3-.2 3.1 2.5 3.6 4.6 2.4 1-.7 1.9-2 2.3-3 .4-.8.4-3.1.2-3.8.1-.3-.1-.3-.3-.3m-5.2-7.7c1-1.7-1.2-.2-1.7 0-.6.6.4 1.8 1.1 1.3l.6-1.3zm-3.2 1.8c-1.4 0-3.3 1-4.4 3.3-.2.8 0 .8.1 1.8.2.8.5 1.8.2 2.9.2 1.2 1.6 1.2 2.6 1.2.7 0 2.6-3.3 3.3-3.3.5-.4.7-2.6.5-3.9.1-.9-1.3-2-2.3-2m-5.8 1.2c.7-.8.7-1-.4-.5-.8.2-1.1.4-1.4.9-.4.6 0 1.3.8.9.6-.3.8-.9 1-1.3m-1.5 2.7c-1 0-1.6 0-2.6-.4-.6 0-2.8 1-3.4 2-.8 1.4-.6 4.9.8 5.5.9.4 2.9 0 3.5-.4 1-.4 2.7-2.4 2.9-4 .2-1-.4-2-.8-2.7h-.4zm-6.2 9.9c-1.8.4-3.7 3.2-3.7 5 0 1.2 1.2 2.9 2.5 3.3.8.4 1.2 0 1.8 0v.2c.4.4 1.5 2.5 2.1 3.1.8.6 2.7 1 2.9 1h.2c0 .4.8 2.3 2.3 3.5 1.6 1.2 4.3-.4 5.2-1.4 1.2-1.9 1.6-2.9 1.8-4.3-.6-2-1.6-3.5-.6-7.1.4-2.2-1-2.8-1.8-3.2-.6-.5-.6-2.7-2.1-3.1-.9-.2-2.9.6-2.9.6s-2.3.5-3.8 1.6c0 0-2.6.2-3.9.8m-7 11.7H93.3l14.6-18.3v-5.5H83.3v6.3h14.3L83 56.2v5.5h24.8l.8-6.3zm-37 6.3h7.6v-19c0-1.8-.2-3.5-.7-5-.4-1.5-1.2-2.7-2.1-3.8-1-1-2.3-1.8-3.9-2.4-1.6-.6-3.6-.8-5.9-.8-3.8 0-6.8.7-9 2.1-2.2 1.4-3.6 3.7-4.1 6.8l7.4.7c.5-2.4 2.3-3.6 5.5-3.6 1.4 0 2.6.3 3.6 1s1.5 2 1.5 3.8V43l-3.9.2c-1.9.1-3.8.3-5.7.6-1.9.3-3.5.8-5 1.6-1.5.7-2.7 1.7-3.6 3.1-.9 1.3-1.4 3-1.4 5.1 0 1.6.3 2.9.8 4.1.5 1.1 1.3 2.1 2.2 2.8.9.7 2 1.3 3.2 1.6 1.2.3 2.5.5 3.8.5 2.3 0 4.3-.4 5.7-1.3 1.5-.8 2.8-1.9 4-3.3v3.7zm-.2-11.9c0 1.2-.2 2.3-.7 3.1-.5.8-1.1 1.5-1.8 2-1.3 1-3 1.4-5.1 1.4-1.2 0-2.2-.3-2.9-.9-.7-.6-1-1.4-1-2.4 0-.7.1-1.2.3-1.8.2-.5.6-1 1.1-1.4.6-.4 1.4-.7 2.4-1 1-.3 2.4-.4 4.1-.5l3.6-.2v1.7zm-29.2 2V37.9h6.9v-6.3h-6.9v-8h-8.1v8h-4.7v6.3h4.7v14c0 3.7.8 6.4 2.4 7.9 1.6 1.6 4 2.4 7.3 2.4 1 0 2-.1 3-.2 1.1-.1 2.1-.4 3.3-.7L49 55.4c-.5.2-1.1.3-1.6.3-.6.1-1.1.1-1.6.1-1 0-1.9-.3-2.5-.8-.7-.6-1.1-1.7-1.1-3.2m90.5-3.9c-.8 1.1-1.4 1.7-1.4 2.9 0 .9 1 3.2 2.7 2.8 1.6-.4 1.6-1.2 2.4-1.9.8-.5 1.3-1.6 1.7-3-.2-1.8-1-4.6-3.7-3.6-1.2.4-1.2 2-1.7 2.8z" style="fill-rule:evenodd;clip-rule:evenodd;fill:#fff"/></svg>