<?xml version="1.0" encoding="utf-8"?>
<!-- Generator: Adobe Illustrator 25.1.0, SVG Export Plug-In . SVG Version: 6.00 Build 0)  -->
<svg version="1.1" id="Ebene_1" xmlns="http://www.w3.org/2000/svg" xmlns:xlink="http://www.w3.org/1999/xlink" x="0px" y="0px"
	 viewBox="0 0 933.5 102.3" style="enable-background:new 0 0 933.5 102.3;" xml:space="preserve">
<g fill="#FFFFFF">
	<path d="M32.1,31.8l10.4,13.8V27.1l-4.3,0.8H6.1l-4.2-0.8v18.5l10.4-13.8h4v37.2L8,74.2h28.5l-8.3-5.3V31.8H32.1z M68.2,74.2h17.7
		l-3.6-4.6V51.6c0-6-4.8-10.2-11.2-10.2c-4.1,0-7.3,1.9-9.3,4.6h-0.1l0.1-18.7l-13.9,0.7l3.6,4.6v37.2l-3.6,4.6h17.7l-3.3-4.6V49.8
		h9.4v19.9L68.2,74.2z M98.7,52.1c0.8-3.8,2.9-5.9,4.9-5.9c2.4,0,3.6,1.6,3.6,4.9V52L98.7,52.1L98.7,52.1z M98.4,55.9h18.1v-3.3
		c0-5.9-4.6-11.2-12.6-11.2c-8.5,0-14.5,8.2-14.5,17.4c0,8.3,4.9,16.2,14.5,16.2c6.8,0,11.2-4.4,13.5-11.8l-1.5-0.7
		c-2.4,2.1-4.3,3.7-8.3,3.7C103.1,66.3,98.6,63.1,98.4,55.9 M217.6,68.8l-5-1.8c-5.6,6.4-14.5,11.6-26.5,11.6
		c-19.3,0-32-14.5-32-34.7c0-21.4,11.1-32.1,23.1-32.1c10.8,0,20,7,25.8,20.6l4.2,9.7h5.4V4.7h-7.2c-6.1,0-13.8-1.7-26.2-1.7
		c-27.7,0-45.4,21.5-45.4,48.2c0,26.4,16.7,47.9,44.1,47.9h1.2c5.1,0,9.7-1,13.7-3C206.1,90.3,214.4,76.9,217.6,68.8 M292.6,60.4
		c0,17.4-4.8,27.8-14.9,27.8c-16,0-25.3-21.9-25.3-46.6c0-17.4,5.7-28.3,15.8-28.3C284.3,13.3,292.6,36.4,292.6,60.4 M317.9,50.9
		c0-26.4-18-47.9-45.4-47.9c-27.7,0-45.4,21.5-45.4,48.2c0,26.4,18,47.9,45.4,47.9C300.2,99.1,317.9,77.5,317.9,50.9 M358.7,89.5
		V15.2l15.4-10.4h-49.7l10.4,10.4v71.8l-10.4,10.4h68.9l5.9-31.3l-26.8,23.5H358.7z M485.5,23l13-18.3h-36.1L476.9,23v35
		c0,20-6.4,31.6-22.6,31.6c-17.2,0-18.4-10.8-18.4-30.2V15.2l11.6-10.4H401l10.4,10.4v47.2c0,26.5,17.1,36.7,41.8,36.7
		c24.4,0,32.4-18.4,32.4-39.9L485.5,23L485.5,23z M609.1,86.9V13.8l11.8-9.1h-32.7l-23.7,56.2h-0.3L536.6,4.7h-29.6l7.8,13.8v65.8
		l-13.1,13.1h38.5l-16.8-13.1V34.1h0.3l33.5,63.3L585,34.1h0.3v52.9l-9.5,10.4h45.2L609.1,86.9z M684.7,70.9
		c0,12.1-3.7,18.7-15,18.7h-4.8V53.9h4.6C680.9,53.9,684.7,58.7,684.7,70.9 M682.2,26.6c0,10-1.3,19.5-12.8,19.5h-4.6V12.4
		C672.2,12.4,682.2,13.3,682.2,26.6 M686.1,47.1v-0.3c10.4-2.1,20.8-7.2,20.8-21.1c0-17.9-17.8-21-31.3-21h-45L641,15.2v71.8
		l-10.4,10.4H672c22.3,0,38.4-8.7,38.4-27.7C710.4,52.1,695,47.8,686.1,47.1 M740.1,27.9l24-23.2h-48L740.1,27.9z M716.1,97.4h48
		l-24-23.2L716.1,97.4z M790.8,21.3c0-6.7,5.1-10.3,10.3-10.3c10.4,0,17.8,7.7,23.9,21.1l1.7,4.1h6.5V4.7H826
		C821,4.7,815.2,3,806.3,3c-19.8,0-31.7,11.6-31.7,26.2c0,36.8,48.4,32.2,48.4,50.6c0,7.3-4.7,9.7-11,9.7c-11,0-20.4-8.1-27.7-20.6
		l-3.7-6.4h-6.5v34.8h10.4c5.6,0,11.6,1.7,23.5,1.7c16.7,0,29.8-9.9,29.8-26.8C837.9,36.3,790.8,40.5,790.8,21.3 M929.1,40.1V3
		l-8.6,1.7h-63.4L848.7,3V40l20.9-27.5h7.4v74.4l-16.6,10.6h57l-16.6-10.6V12.4h7.4L929.1,40.1z"/>
</g>
</svg>
