<?xml version="1.0" encoding="UTF-8" standalone="no"?>
<!-- Created with Inkscape (http://www.inkscape.org/) -->
<svg
   xmlns:svg="http://www.w3.org/2000/svg"
   xmlns="http://www.w3.org/2000/svg"
   version="1.0"
   width="597"
   height="162.32001"
   id="svg2">
  <style>
    #path2485,
    #path2481,
    #path2479,
    #path2475,
    #path2473,
    #path2467,
    #path2465,
    #path2463,
    #path2461,
    #path2459,
    #path2457 {
      fill-rule: evenodd;
      clip-rule: evenodd;
    }
  </style>
  <defs
     id="defs4" />
  <g
     transform="translate(-0.42278,2.7388507)"
     id="layer1">
    <g
       transform="translate(123.13709,-309.2089)"
       id="g2501">
      <path
         d="M 30.285694,417.79075 L 30.285694,376.79075 L 46.785694,376.79075 L 63.285694,376.79075 L 63.285694,380.7307 L 63.285694,384.67065 L 71.564124,380.26677 C 82.878634,374.24779 90.538034,372.40509 101.42006,373.08404 C 107.86766,373.48632 111.46497,374.29005 115.62389,376.25753 C 122.35741,379.443 125.43218,382.90394 128.29952,390.52515 C 130.1483,395.43909 130.41148,397.84174 130.08117,406.79075 C 129.65722,418.27702 128.47218,421.72705 122.92374,427.62838 C 115.53356,435.48857 106.28592,437.75592 81.535694,437.77597 L 63.285694,437.79075 L 63.285694,448.29075 L 63.285694,458.79075 L 46.785694,458.79075 L 30.285694,458.79075 L 30.285694,417.79075 z"
         id="path2485"
         style="fill:#ffffff" />
      <path
         d="M 92.157584,414.68557 C 96.087694,413.31552 97.285694,411.17233 97.285694,405.51148 C 97.285694,400.01536 95.042654,397.74311 88.937964,397.05502 C 83.635024,396.45731 76.020104,398.73455 68.535694,403.15632 C 63.370504,406.20791 63.285694,406.33501 63.285694,411.02438 L 63.285694,415.79075 L 76.136474,415.79075 C 83.204394,415.79075 90.413894,415.29342 92.157584,414.68557 z"
         id="path2483"
         style="fill:#000000;fill-opacity:1" />
      <path
         d="M -72.979839,438.72834 C -87.24811,435.26962 -93.714306,425.72084 -93.714306,408.10925 L -93.714306,399.79075 L -103.21431,399.79075 L -112.71431,399.79075 L -112.71431,388.32828 L -112.71431,376.8658 L -103.46431,376.57828 L -94.214306,376.29075 L -93.930474,365.54075 L -93.646643,354.79075 L -77.714306,354.79075 L -61.781969,354.79075 L -61.498138,365.54075 L -61.214306,376.29075 L -44.964306,376.56552 L -28.714306,376.84029 L -28.714306,388.31552 L -28.714306,399.79075 L -45.354209,399.79075 L -61.994112,399.79075 L -61.404737,405.54075 C -60.9318,410.15478 -60.273362,411.75857 -58.071885,413.65875 C -55.537729,415.84608 -54.751817,415.97923 -47.771356,415.40386 C -40.3033,414.7883 -36.346819,414.25202 -31.964306,413.26129 C -30.726806,412.98154 -29.710907,413.09872 -29.706752,413.5217 C -29.702597,413.94468 -29.287272,416.99075 -28.783807,420.29075 C -28.280346,423.59075 -27.635956,428.402 -27.351836,430.98241 L -26.835266,435.67407 L -32.060003,436.75872 C -46.319565,439.71899 -65.153333,440.62553 -72.979839,438.72834 z"
         id="path2481"
         style="fill:#ffffff" />
      <path
         d="M 253.01426,437.15221 C 247.13841,435.09998 241.81585,429.45956 240.22336,423.59742 C 238.74365,418.15045 239.55933,405.09606 241.62952,401.09275 C 243.91022,396.68237 249.65689,392.04317 254.52256,390.68441 C 260.34481,389.05851 276.88199,389.05952 281.62146,390.68606 C 290.09017,393.59245 295.28569,401.68605 295.28569,411.97225 L 295.28569,415.79075 L 270.65402,415.79075 L 246.02235,415.79075 L 246.56397,419.82885 C 247.24929,424.93827 249.42328,428.26758 253.54511,430.51994 C 256.193,431.96688 259.25478,432.29075 270.28569,432.29075 C 277.71069,432.29075 285.87436,431.96855 288.42718,431.57475 C 292.99414,430.87025 293.07557,430.90577 293.49836,433.78639 C 293.7944,435.80346 293.44407,436.89973 292.37196,437.31114 C 291.51611,437.63956 283.38408,438.11311 274.30078,438.36348 C 260.62242,438.7405 256.96612,438.53245 253.01426,437.15221 z"
         id="path2479"
         style="fill:#ffffff" />
      <path
         d="M 287.99755,406.67917 C 287.29191,401.41823 283.47634,397.38403 277.66805,395.75781 C 271.4823,394.02591 257.47235,394.9834 253.29296,397.4237 C 249.93615,399.3837 246.28569,405.28465 246.28569,408.75091 C 246.28569,410.73968 246.81479,410.79075 267.41736,410.79075 L 288.54903,410.79075 L 287.99755,406.67917 z"
         id="path2477"
         style="fill:#000000;fill-opacity:1" />
      <path
         d="M -17.714306,407.29075 L -17.714306,376.79075 L 0.28569428,376.79075 L 18.285694,376.79075 L 18.285694,407.29075 L 18.285694,437.79075 L 0.28569428,437.79075 L -17.714306,437.79075 L -17.714306,407.29075 z"
         id="path2475"
         style="fill:#ffffff" />
      <path
         d="M 164.52093,407.60327 L 164.78569,377.29075 L 188.78569,377.33443 C 211.58183,377.37592 212.99784,377.48927 217.01508,379.59424 C 222.09503,382.25605 224.39242,386.28847 224.42641,392.60275 C 224.46033,398.90483 222.90997,402.52844 219.30105,404.58207 C 215.56809,406.70629 215.56186,407.07906 219.2362,408.46597 C 223.39444,410.03553 226.27739,415.22128 226.28195,421.13962 C 226.28714,427.86429 223.8704,432.43045 218.89808,435.09063 C 215.02499,437.16272 213.31552,437.30894 189.52093,437.60327 L 164.25618,437.91578 L 164.52093,407.60327 z"
         id="path2473"
         style="fill:#ffffff" />
      <path
         d="M 211.5102,431.24187 C 216.44822,430.01932 219.28569,426.42569 219.28569,421.39426 C 219.28569,415.72997 216.33959,412.04491 210.78569,410.76225 C 208.58569,410.25417 198.79819,409.82773 189.03569,409.81461 L 171.28569,409.79075 L 171.28569,420.62408 C 171.28569,426.58242 171.62319,431.80488 172.03569,432.22955 C 172.89942,433.11878 207.41762,432.25511 211.5102,431.24187 z"
         id="path2471"
         style="fill:#000000;fill-opacity:1" />
      <path
         d="M 210.54515,402.73556 C 214.95583,401.51067 217.09489,398.69351 217.43366,393.66336 C 217.78281,388.47892 215.31663,385.28778 209.90842,383.92597 C 207.42082,383.29959 197.75457,382.79075 188.34287,382.79075 L 171.28569,382.79075 L 171.28569,393.29075 L 171.28569,403.79075 L 189.03569,403.78517 C 198.79819,403.78211 208.47745,403.30978 210.54515,402.73556 z"
         id="path2469"
         style="fill:#000000;fill-opacity:1" />
      <path
         d="M 310.28569,413.72739 L 310.28569,389.66403 L 313.53569,389.97739 L 316.78569,390.29075 L 317.28569,400.7543 L 317.78569,411.21785 L 323.01447,404.63917 C 330.74441,394.91362 337.60001,390.29914 345.89729,389.23683 C 349.18473,388.81593 349.28569,388.90711 349.28569,392.29688 C 349.28569,395.24698 348.93551,395.79417 347.03569,395.81271 C 340.59028,395.87563 330.75191,403.33542 322.13947,414.68988 L 317.28569,421.08901 L 317.28569,429.43988 L 317.28569,437.79075 L 313.78569,437.79075 L 310.28569,437.79075 L 310.28569,413.72739 z"
         id="path2467"
         style="fill:#ffffff" />
      <path
         d="M 359.28569,407.29075 L 359.28569,376.79075 L 362.78569,376.79075 L 366.28569,376.79075 L 366.28569,407.29075 L 366.28569,437.79075 L 362.78569,437.79075 L 359.28569,437.79075 L 359.28569,407.29075 z"
         id="path2465"
         style="fill:#ffffff" />
      <path
         d="M 383.28569,413.79075 L 383.28569,389.79075 L 386.78569,389.79075 L 390.28569,389.79075 L 390.28569,413.79075 L 390.28569,437.79075 L 386.78569,437.79075 L 383.28569,437.79075 L 383.28569,413.79075 z"
         id="path2463"
         style="fill:#ffffff" />
      <path
         d="M 407.28569,413.79075 L 407.28569,389.79075 L 410.78569,389.79075 L 414.28569,389.79075 L 414.28569,401.36748 L 414.28569,412.9442 L 416.95962,409.61748 C 423.18749,401.86916 431.12166,394.45613 435.78569,392.02796 C 442.25463,388.66013 452.12091,388.33713 457.2133,391.32646 C 463.55056,395.04656 464.28569,397.92567 464.28569,419.02515 L 464.28569,437.79075 L 460.75547,437.79075 L 457.22525,437.79075 L 457.33288,419.73337 C 457.45506,399.23568 456.98451,397.59456 450.48321,395.84394 C 441.96878,393.55124 432.33077,399.47807 420.34503,414.37721 L 414.28569,421.9094 L 414.28569,429.85008 L 414.28569,437.79075 L 410.78569,437.79075 L 407.28569,437.79075 L 407.28569,413.79075 z"
         id="path2461"
         style="fill:#ffffff" />
      <path
         d="M 383.52867,381.63373 C 380.66488,378.76994 383.21794,374.34684 387.37852,374.96399 C 390.41472,375.41435 392.10338,378.26704 390.67971,380.54075 C 389.33445,382.68925 385.21397,383.31903 383.52867,381.63373 z"
         id="path2459"
         style="fill:#ffffff" />
      <path
         d="M -7.3901257,369.41002 C -17.415566,366.13418 -23.911576,359.12138 -25.846836,349.48503 C -27.858196,339.46971 -23.756426,328.51724 -15.898856,322.92216 C -13.193286,320.99562 -11.584996,320.79075 0.83292428,320.79075 L 14.571404,320.79075 L 19.330614,325.54996 C 32.252934,338.47228 28.468784,360.73362 12.157014,367.75076 C 5.7017343,370.52775 -1.9750957,371.1794 -7.3901257,369.41002 z"
         id="path2457"
         style="fill:#ffffff" />
      <path
         d="M 25.714285,349.14789 A 28.214285,24.642857 0 1 1 -30.714285,349.14789 A 28.214285,24.642857 0 1 1 25.714285,349.14789 z"
         transform="matrix(0.9620253,0,0,1.1014494,2.762207,-40.956523)"
         id="path2487"
         style="opacity:1;fill:#e9242e;fill-opacity:1;stroke:none;stroke-opacity:1" />
    </g>
  </g>
</svg>
